<mxfile host="app.diagrams.net" modified="2021-03-29T14:31:41.028Z" agent="5.0 (Windows NT 10.0; Win64; x64) AppleWebKit/537.36 (KHTML, like Gecko) Chrome/89.0.4389.90 Safari/537.36" etag="dlXfbg5W8YBGStyQJ0ST" version="14.5.3" type="github">
  <diagram id="cmzAgm8N0b4IbFCmrVYN" name="Page-1">
    <mxGraphModel dx="782" dy="1816" grid="1" gridSize="10" guides="1" tooltips="1" connect="1" arrows="1" fold="1" page="1" pageScale="1" pageWidth="850" pageHeight="1100" math="0" shadow="0">
      <root>
        <mxCell id="0" />
        <mxCell id="1" parent="0" />
        <mxCell id="s-K3VyDwhbTrTfHGJYKy-1" value="Nota de Corretagem" style="rounded=0;whiteSpace=wrap;html=1;fillColor=#fff2cc;strokeColor=#d6b656;" vertex="1" parent="1">
          <mxGeometry x="450" y="70" width="320" height="260" as="geometry" />
        </mxCell>
        <mxCell id="161Uzi5ln6aIAx_xt0JG-37" value="Mercado" style="whiteSpace=wrap;html=1;aspect=fixed;fillColor=#f8cecc;strokeColor=#b85450;" parent="1" vertex="1">
          <mxGeometry x="610" y="-250" width="80" height="80" as="geometry" />
        </mxCell>
        <mxCell id="161Uzi5ln6aIAx_xt0JG-9" style="edgeStyle=orthogonalEdgeStyle;rounded=0;orthogonalLoop=1;jettySize=auto;html=1;" parent="1" source="161Uzi5ln6aIAx_xt0JG-1" target="161Uzi5ln6aIAx_xt0JG-10" edge="1">
          <mxGeometry relative="1" as="geometry" />
        </mxCell>
        <mxCell id="s-K3VyDwhbTrTfHGJYKy-21" style="edgeStyle=orthogonalEdgeStyle;rounded=0;orthogonalLoop=1;jettySize=auto;html=1;fontSize=12;" edge="1" parent="1" source="161Uzi5ln6aIAx_xt0JG-1" target="s-K3VyDwhbTrTfHGJYKy-20">
          <mxGeometry relative="1" as="geometry" />
        </mxCell>
        <mxCell id="161Uzi5ln6aIAx_xt0JG-1" value="Ordem Executada" style="whiteSpace=wrap;html=1;aspect=fixed;fillColor=#ffe6cc;strokeColor=#d79b00;" parent="1" vertex="1">
          <mxGeometry x="280" y="230" width="80" height="80" as="geometry" />
        </mxCell>
        <mxCell id="161Uzi5ln6aIAx_xt0JG-5" style="edgeStyle=orthogonalEdgeStyle;rounded=0;orthogonalLoop=1;jettySize=auto;html=1;" parent="1" source="161Uzi5ln6aIAx_xt0JG-2" target="161Uzi5ln6aIAx_xt0JG-1" edge="1">
          <mxGeometry relative="1" as="geometry" />
        </mxCell>
        <mxCell id="161Uzi5ln6aIAx_xt0JG-2" value="Home Broker" style="whiteSpace=wrap;html=1;aspect=fixed;fillColor=#f8cecc;strokeColor=#b85450;" parent="1" vertex="1">
          <mxGeometry x="130" y="230" width="80" height="80" as="geometry" />
        </mxCell>
        <mxCell id="161Uzi5ln6aIAx_xt0JG-10" value="Processar Ordem na Nota de Corretagem" style="whiteSpace=wrap;html=1;aspect=fixed;fillColor=#dae8fc;strokeColor=#6c8ebf;" parent="1" vertex="1">
          <mxGeometry x="420" y="230" width="80" height="80" as="geometry" />
        </mxCell>
        <mxCell id="161Uzi5ln6aIAx_xt0JG-12" value="" style="shape=image;verticalLabelPosition=bottom;labelBackgroundColor=#ffffff;verticalAlign=top;aspect=fixed;imageAspect=0;image=data:image/png,iVBORw0KGgoAAAANSUhEUgAAAs8AAAFSCAYAAAANYjK3AAAgAElEQVR4Ae29PXIrTROdeZdySXMiZM1qRgZ5zTE07viEK2tM7UAR4AbkKUY+LEVoD1zE9ERm1ak6mVXdAEiQbJDnjbgfulFV+fPU30Ghie/Pov9EQAREQAREQAREQAREQAQuIvDnolqqJAIiIAIiIAIiIAIiIAIisEg8axCIgAiIgAiIgAiIgAiIwIUEJJ4vBKVqIiACIiACIiACIiACIiDxrDEgAiIgAiIgAiIgAiIgAhcSkHi+EJSqiYAIiIAIiIAIiIAIiIDEs8aACIiACIiACIiACIiACFxIQOL5QlCqJgIiIAIiIAIiIAIiIAISzxoDIiACIiACIiACIiACInAhAYnnC0GpmgiIgAiIgAiIgAiIgAhcJZ7//Pmz3PKf8IuACIiACIiACIiACIjAPRG4Wjwv/+V/W27xz0S4/hMBERABERABERABERCBeyJwlYJ1wSvxfE/9q1hFQAREQAREQAREQARuSEDi+YYwZUoEREAEREAEREAEROBnE9iVeH47/lv+PjyO/55fl7dv7ofTocT1cvrmQD7i/nRY/h7uOYGPJK+2IiACIiACIiACIvBxAvchnl1QHxbJvg90uAln4yjx/AGIaioCIiACIiACIvDbCexSPD8d+Zz5bTk+19NoFn5vr8sTn1LPyp5fl2M9Mf778G9xs9yO2yzkp9rlOPLJc7s/chzbAj+erNd4bAQiJo4H79GpO3yW03n2dVpe6geMI5/ewx6Ec+PFbX/7FFD+IiACIiACIiACInA5gTsQzyQuISQhLJsYrOL6bPm/KLgfHhc8hhGFKR4d6QIX5dv11092o3CGfYhYCHfcLwvqQ8DDf3isBfkuEM+w2189Xonny2eEaoqACIiACIiACIjABoH7EM9NHBZxCSEJYbnQqbGLxSauIX67uESb0UakhPIslvN9ewwCArUJWrY3iuOl1kc8EMvFPuqn+Ml2rN/zy/HBPvy1eDk8XYuACIiACIiACIiACFxE4A7FM4RiP6X1TFmMQjw3sZnF6HiyC1oQpTjhzWJ07X6BwG8+YdFeEXM/EYb9JmYRsz1qwdfWHPf5pP3hcSniGPaJCfPwEPTMM/eIrkVABERABERABETgPQTuQzxDPLowhRAmoWiZs1gM9a0QbXCSO4rnS0+aby6em9hGjIcFzy3D15Z4LuJb4vk9g19tREAEREAEREAEROBaAnchniFs8QhCvu/iuD7DfLV4zuITQnZ8JhqCFjHgvp0uNzHMXQF7SfBzFZP4/Md+D1y3xje1bUZy/OnDhFfRyXPCrVsREAEREAEREAERuJrALsVze6QhPKZAYhLiOJQ/Ln8hLlGO+7MnzxCf42MVEMdZLOf7JmCbz9gXURh3P7BfalMc+KWMagb+IhucpKMdMeKTeLNR70t7tIsx6k4EREAEREAEREAERGCbwH2I55kghUCGgGaxibLWDie/XTRCzOI0O4hLawcb1S7EK8Ruvj8nnq0b4BMCuPmmPhrt9kKUoT1iab75tDqL5/YBwoR759Ct60oEREAEREAEREAEROAcgV2J53PBqlwEREAEREAEREAEREAEvpOAxPN30pdvERABERABERABERCBuyIg8XxX3aVgRUAEREAEREAEREAEvpOAxPN30pdvERABERABERABERCBuyIg8XxX3aVgRUAEREAEREAEREAEvpPA1eL5z58/y63+fWfi8i0CIiACIiACIiACIiAC1xK4Sjxfa1z1RUAEREAEREAEREAEROAnEZB4/km9qVxEQAREQAREQAREQAQ+lYDE86filXEREAEREAEREAEREIGfREDi+Sf1pnIRAREQAREQAREQARH4VAISz5+KV8ZFQAREQAREQAREQAR+EgGJ55/Um8pFBERABERABERABETgUwlIPH8qXhkXAREQAREQAREQARH4SQQknn9SbyoXERABERABERABERCBTyWwQ/H8thyfH5e/D4fl9Kmpf6bx0/Ly8G85vq34OB2Wv8+vC4rfjv/C/UqrlbcLr5f7hTXJy/g9Lu/LKbL/GNsc2kfiyrbi/W3jjLZ1NydwOjwufw9p4ry9Lk8Pj8tTnrw2Z1fWpNh3cfwtaa7PI3nvu583Ht8bkbVzHplrM/gT16uWnC5EQAR+CYH9iWffbA7Ly/NkA7ubTkkbaI47bahx882Vz91rM4qEIvuPsY2Wl2WfYiVHqfsLCaR56K38vX/LE324tfcvH0dx/H2ueL4wzy+uJvH8xcDlTgRE4MsJ7E4822mQnfpMNys/FTosRzupfbDT6cfzJ7a2GaIun2b6++l0u9rHWZTH0NrySXLdII9sG7aKwILP4fQ0xFPalFzLBwa0iydfOI2vObeTsfh+bMNjKcaU663nWUXDhMHYP8UH8rV+fDmWU7y/9RR+yw9HG0XqFuvYCu3A0GI5z3Y9x2wd9l8O1O8ssnz88DhZlni6GfuBTz0Dz0vGeRhH6ZTe2+exUrPZKksJl7l4qt8EmT3OzXKhudg4xByvGWsuNNtY+5ycQoor/fVysnnFuZZ5VnIZ8/5f7ZujmPvLf6VxwqfWG31XmL/6Ny88jkPc7ab4K3POrv8tx+ma1Br0izrGThxLOi32sUv9weN1WRlHYY63MQG3a+tVfJ+/lSt+aJxZPMFuZB5iNLecH6//CEmvIiACIvAOAjsTz3UDsOcZJhtbW7DbIl8WzrxBNw6+cELUZpulLcSetfGFv9oOYsYKg626YLdFvC7+IS7efFtE5cJstbZdvLVY3BfaZ9uoH8tb2+QKgq8zSsxCXinPjbKBTzqVLRsvsd+wNYQcbJ1jnVtbfbABKxJigW0tp76I/TyzbSKy5+V5ov1kzHq5j4vSj70f4n3gCWESxhN9E5NZBr+FVx8PfM/Xllu+j/lCPDVbgV1pG8VKea/nmO5z3HzP1xbGJ+UUMyx90PJzHqVvLfeYB8bUmHfoO7eBunU+YXw4chPUffzEPOuHrWH8Uv2QQImlxF/jar7GdSM0xRhbqR/GdYsb84j9emF4zMp5tLEbvFrH+oexzjzOg+KKHqdBnM1e8V36JrdN95tjKselexEQARG4nMCuxHPchPKpXd5QS5JdnOSk8yJdynlhj225vi3QtAFW031DzZtHFmHz9i1CW9TbppXbWq3RfmtrF0FYcNyhlt9kpv5m21TSZhOab5WdjzmyTaI8+JndcP58XepOc2pmIvuxLtuLdWGi9zPewSu3re9xX/B1Le4cruB5gZ0uPoqjPq4nMSL8c+Oq1SsXPXYUcA6jn5E19zu3hT28lrKvyAke8dq51XmFeclz1PsDAvZc3lZOawfbGYRjiYJjGJhPxgJij+vEubh6K7+a2W3rQqrrt2yfr8e6nM+kNIrnwAe1ieEkzs7oI2MKvvQqAiIgAtcT2JF4nmygeTHfXEhz8mWBx1ef4RWnGGzfbdcN0q/7197ctpx4jJtHFA60+Oew7D5tGLGtVwgnOTDhm0b7GhUb9IQbGrgrOsXB+y3XMQ9UiRtzfxdX52LuG1xrQV//4wQLZfmV4+LrUm/0ze0j+7Eu2Tvbz2zXrqPtUprtoV9qKf9Rmo+3Oq4g0qqLEKfHtWan+OMx2a7ruHZbGCcY6+xnpaxWaS/Wh/30tbzd+5Xyri16WTNRP+jZvBrr91pfl1P32YJuH2SNW8/XYirrgfNsHMc8Qt/lMRLm+vk8B4aTsdBz4Fj4utSIcfVWftXWAHp/4sttYLzQYw/h/caG/Kb3upe4XgU75Kc9IjSJKTBanVPnWfeYdCUCIiAC1xHYj3jmRTAsorSBn1tIQ+7jZhKK/abX8UUcC/7ET2zb2+F9b98EkZVH8YN6xe11J8++WRgT2A/xxc0o+NmVeO6RtXxWGTFfvi42Iutut1xF9mNdshc4Zjuz+2i7+6sfBib2wkYPk16viug65kKcm3Yofthbe6U51UVhrbxV1qrQ3KP3yqMaYxzruV4mnvPJ8zStrbi3yqbG7E3Lw+KzeRTnrOVjMdlr5zfmHfruAvG8lefAcDIWeiocC1+XGjGu3sqv3G75cNBKyJe39XUYdUb73m7C3NtiLW3GcRHXq80YrQnFBAsDo1aP59RKvDCiVxEQARH4AIHdiOfpggjxNxWNJeu1dni2rm96c0ql/Wv8KnHzlMzsjAtz3ASsPG7EwbttOMjJ9of2B0eoxfYntsKGEjcjWMDraNuh1ucuS9s5o62yczFPHrlBQO11y37OP55UT3NqdiOvse627WZmesFtawXuC76uxevjk/sh8dy0s8VtGvRkfPV6I59eNsbOvkcWU1suriBOWYR2P5fO1dBimDO9dBpHLx6uLM/yx60QiqWK2Xk62h/v8Vw+l7eVU/0w15nfEIa/MTCfjIXekmPh6x4/rzO93VyU9uf9S5xR5I/22R4z9+sLxXP3ydboepL/wIiqd3vnWXMzXYuACIjANQR2Ip43FmZePPm6Znl+IaWNrD5zGMRiOznhelXM8B/2BME8xsubx/zrfeqWsKEm4eTV2D5fW2G5b19rrjxH2b2V+j3ndN/ETW3BjM+WdWaeP32tO/TLlq0ebL3inPm6FEfWubHVT3HRBxXwgzAocbNoGv11D6WsC5KyQfc/mivljbWzxGMz42bOjEJO3AcgMjz+0XOM4jPHz363ynqWuPL4iGUXJlYj2+rvtfxrnXa/NQa87PNzQm78auyfnv+t/uZz7++eI8aPvRP6znOmPCwvHn+beU4+dE7GQo+d+4CvS40YV2/lV2Fs2js8Tvi6l9njQSXv7CvWd7+Xiufqt8+h+KFy++Q5+rVIeU6V8Up9EXJ0CvofERABEXgXgV2IZ19sg1DlXMoC6YvrZCMJiyU3q9fFdn9+uW3krW7ZCMIGV8uKeOht+4aZN4+8gdZFvP2kXHMGy/WnqMrCPm5yyb5vuIjD2pRy5NJyXN2wao71cRi0Q1StfS3veeJDBHxj8ywtmc/TsfykGdrO+oXr940YUfAr58/Xpc7Ii9tG9mPd0d51caWfA2NhZGFwXz2/Lic7IUW/QLBUzjzmQpwXjPPcZ6FPOQbzBf85vlwWMVYhcqCfTWMhMnIszcv7eA47xAWhifybGCstPyOnwDXl125rv2Dstvdnwm7yoSH7wHgquYNHZ7eV5zBvJmOhx8d9wNelRo6rt+snzy8H+tlPHidprJaf76OxtDXGWlv+UNq9t/ybPzDCOkPtJvkHRs1XbZvmY/NVxxyPx00+PVxdiYAIiMBAYBfieYhKb4iACHw7gSBSvj0aBXBTAhNRelP7MiYCIiACP5iAxPMP7lylJgIfISDx/BF6O28r8bzzDlJ4IiACeyYg8bzn3lFsIvCNBCSevxH+Z7uWeP5swrIvAiLwgwlIPP/gzlVqIiACIiACIiACIiACtyUg8XxbnrImAiIgAiIgAiIgAiLwgwlIPP/gzlVqIiACIiACIiACIiACtyUg8XxbnrImAiIgAiIgAiIgAiLwgwlIPP/gzlVqIiACIiACIiACIiACtyUg8XxbnrImAiIgAiIgAiIgAiLwgwlcJZ7//Pmz3PLfD+aq1ERABERABERABERABH4ggavF8/I//8Nyi38mwvWfCIiACIiACIiACIiACNwTgasUrAteied76l/FKgIiIAIiIAIiIAIicEMCEs83hClTIiACIiACIiACIiACP5vArsTz2/Hf8vfhcXk6vkXqp4O///dwiu/rTgREQAREQAREQAREQAS+kIDE8xfClisREAEREAEREAEREIH7JnCn4vltOT4/ltPoh/L6kg6lTwcuPyy9+LS8eJvD8oI6OtG+71Gs6EVABERABERABETgiwjcpXiOwhgi+d+Cpz2m5c+vS3kYBOIZ7R6XLLy/iL3ciIAIiIAIiIAIiIAI3BmBOxbPXSxH5lUcN7G8LHiWuojkLp4lmiM53YmACIiACIiACIiACGwTuEvxvOAPCOsjG38f6LGMt9flqb3fT5f7HyJCPFObbUYqFQEREAEREAEREAEREAEncJ/iuXYeTpRNGNs/P0neEM/l1zoknjX2RUAEREAEREAEREAE3kdgV+K5nyjzqXD/48DhJ+yQM06i/Q//xsc2UK28SjxHHroTAREQAREQAREQARG4lMC+xPMCYRsftygny3jGuYtpnDjjFc8wT/9g8AHt4YMF+qW4VE8EREAEREAEREAEROA3E9iZeLaumInjLHTHOvlUOgtoCOulCfRs8zcPA+UuAiIgAiIgAiIgAiJwCYEdiudLwlYdERABERABERABERABEfh6AhLPX89cHkVABERABERABERABO6UgMTznXacwhYBERABERABERABEfh6AhLPX89cHkVABERABERABERABO6UgMTznXacwhYBERABERABERABEfh6AleL5z9//iy3+vf16cqjCIiACIiACIiACIiACLyfwFXi+f1u1FIEREAEREAEREAEREAE7p+AxPP996EyEAEREAEREAEREAER+CICEs9fBFpuREAEREAEREAEREAE7p+AxPP996EyEAEREAEREAEREAER+CICEs9fBFpuREAEREAEREAEREAE7p+AxPP996EyEAEREAEREAEREAER+CICEs9fBFpuREAEREAEREAEREAE7p+AxPP996EyEAEREAEREAEREAER+CICOxTPb8vx+XH5+3BYTl8EYbdu3l6Xp4d/y/FttxF+PLDTYfn7/Lr85BQ/DumWFk7Ly8Pj8jKdXGXu9bKtureM6UJb3zYfdsbhQlyqJgIiIAIi8DkE9ieeXUwdlpfnx+XpR6vGCzr028TCBbHdqorE861IXmhnSwhKPF8IUdVEQAREQAR+MYHdiefToYjmt+O/7RNJF5aH5WTi68FOqh+Xv4d8nFaEwqzc7D8dX/0UzsrttM19wtZw4osT8YmvGsvRYkb7tdNUj5dP1UcxU2J7W5Yqnl8OG3Y5/yHmPLJTDhRjyZ1PuWvdxnS9rXvxWCubB/rgU3Pgz0HWx95XIfbOZLMf1vzkVO0+1f17jk+qHz+8xbHEZR7v4bR4XrX/h/HUOC5e7+l4qt+wGLPCnduz/SVwsvqJ1eGVbBH7yiTwPBxWTp5j/xb/dWweaI6Rb+f7/LocrT95/oV4eUyV3MM8zeMj9MFh8TmFcVrrbs6HNA6YaYhxVo/6yIePzWd/bz5H21xv46ow5L5z9ojffZqt3n8pDN2KgAiIgAjcAYGdiWfbWOpmmzfVDBObbNuYstjLG17c2IqgoI3dN3za1MJ9tp3uEUvbfItv3kR7+JSjvVmFRq9rtpkBfyhIdr1tzoHuu1NTki6wup9RyDRRa7XDh5dzbTNrup/0I/vx/FsfZr/gg34hu55bvqeEa5/0RxBqn5Evqm2Okqjk+3Ld2cV7iFP4wn0TiYlBEXS9nyDwmn0ee7mPa5ywDV/wXcZTt13Kwa/2+ZWPbfTHaipDjPPKuMVtQHO86T70vdUPbCLX9uEHfVb9IXf0WfBPneq+0LbFtvLICjN3GyXXwpXHwvYYdd7gU+ccf9hxPq2cgtWlCIiACIjA3RDYlXj2jYc2u2GjZaxh060FtAHGTayWe5siJLKvsul3kcGupmXsn69bKCx6g7V68lie8rU4ng6H5Ql5my2+xoeJwe4oaK3KKjNjA7stHBMFXWhBrLwc07PWZ9oOLJv9LI5KQYgx2E7xVDtWvwikKGLYzSXXW3FeXZbHGrMdxgMLsUkfka1KKPZLSo75jXEzo9kY4fJkuIq9JsSHDxRJOK7kmcUsx8vX7p1thLFQSdipNthy3Rr6YC+nFO63ck9l7gvrAZfZNc0ZisPzHtodlpdDF+wWb+cbgtONCIiACIjAnRDYkXiOAsP5DaKCqIZNqr5Pm6tvqniEIryuiOd2SlS+guYNbhQo5o82UfKLCLc2dbfnp0+Ws23EZqvH1cTHpl3e0OG1ipvJyZb7DBzqV+1JCKBeiwGn0Bttt3KNJ4slzlCfBZPni7jiK+JBfFtfwXcadlU4ta/YIcRipfUPHWsfSDzW3mdN4JldKitu4tgO+XuI+YMNjS3EmdnUPnYeISceF3zdDPk3EDy+UYJvJ3rZ2D7485hYSI71zba3qfEOuZMNroeYtv1NPoigIb26DRq/PT+qlPo5xkJ55X4gu2WMWt3KxMb24eT59zII8uhbdyIgAiIgAvdDYD/i2YVyFEwQPBBOAatvYmkjoo142KRD43SClsq8rW+KZRMMG3irS5sk+UXxpv8Wu9koOVh929RPBxIjm3ZpQ4fTJFTo7fQYBpfE6yY0SIDP8+/tzudKOSWR4qf6EH+TfLuXdEXjZTo+SDSjfCuPrRymZa0PJ2OJykrUHxDPbqvMC4g+jmfMiccFX4NfjAXvzuLEBw/4tTrB39BfM3/fJ549Vp/HWCfm8TUGPqasbmZE7YacW+t2Yf1jY878+9izNjbG7ZXmVWugCxEQAREQgbsisBvxzIKACfr7EFdcMNvE2uaXNnluV6+DCJiU4xTONz+y26qyf76uFdbyKcW2Of9bjsdyMmXvlY32dXnhXDftlg0ewhBxrfqd5YBGeIW/kz22QV8vn2m7yRI26bfoQoxmu+VMIgUxnXld9R3sFiOrdbMoTD6n7YjJUO45Q7CZsSjGQv5WPMRqHOiDWxJc3H7wHR61mI2RLcYxzuvF88xfPB3m2B0zj4+BQ22L8cF1ax8N9ur7mXl5eyt3q1HL/bEl7j9ux9fNWbywPPyPOPGh0dqUP37kDyKxke5EQAREQATuhcBOxPPGhjTZMB2uv8/PFeeNu9hkcclCg6/dHomhbh+bX7Hd/1Ap3U9iXN/Uy9Dwcv5VCvePZ3tLnYseecBXxNbEbSDmaqO9pJhbfYiEyM/5tF8FONc29x/bSv2Q+81ihjiCiG1+PUj6Q74tPy3RcpH7s/JlX7HFlu2UQxVZGFvDWPIcwdW8FB4QTsPYSAyKiCPxPPDp437wDQGIH55JHDDuEEtkEONsYhK20D+IZzLuhzHo/vuYjOOqiuM2hhNnjJUNfwPLlhCPwd4H9m3WPPfSEHziOIljI+cwcELcbRyXWMIfDrY4dSECIiACInBvBHYhnsfNiDHWjSedvkFYhp+tmtahR0GwCWcRUN21jbM+xxg3WWyA1R77moiI9U29OWs/UVbeiRu0v3eJXYhCesykepi8FB94HIY385L7KPj6B4b1tj1WYs18OMbn1+XUfgLMWsJuF1ib/cC2LGf2kzIOdqzvk5BL1ceftgu2EWfJEcLZbAwC1vttZInxNIwNi4vGJotnCO/WZ/UZWvTd4DuLZ8RXxzR+nhGxZAZlLoJryZnrBn+T8en2Qh/1fi2+4jx6OZkPquM2MY7qT9WhHyb+BpacULBlonllLeE2NXbuX4xR5hDG1iDIRz+BG/ok9DkHoWsREAEREIE9E9iFeH4XoMlG+i47aiQCIrBbAi46IZ53G6UCEwEREAER+E0EJJ5/U28rVxHYMwE/9eUT+/Hke8/hKzYREAEREIHfQUDi+Xf0s7IUgbsgsP04xF2koCBFQAREQAR+OIH7Fc8/vGOUngiIgAiIgAiIgAiIwP4ISDzvr08UkQiIgAiIgAiIgAiIwE4JSDzvtGMUlgiIgAiIgAiIgAiIwP4ISDzvr08UkQiIgAiIgAiIgAiIwE4JSDzvtGMUlgiIgAiIgAiIgAiIwP4ISDzvr08UkQiIgAiIgAiIgAiIwE4JSDzvtGMUlgiIgAiIgAiIgAiIwP4IXCWe//z5s9zy3/5wKCIREAEREAEREAEREAERWCdwtXj+H//P/7vc4p+JcP0nAiIgAiIgAiIgAiIgAvdE4CoFa4L3FsLZbEg839MwUawiIAIiIAIiIAIiIAJGQOJZ40AEREAEREAEREAEREAELiSwK/H8dvy3/H14nP57Or5dmNIF1d5elyfz8/y63NDqBY5VRQREQAREQAREQARE4J4J3I14NlH9crpn1IpdBERABERABERABETg3gnsUjznU+Z2In0o6hn3vd7bcny2E+vD0vT16RBPsPmUOZ880/3x0E++u/3SzScqC76seMvfsiyIuZ2s11xmAwh1n46vy0s7if+39MP3U33/sLwgJthDLmiH95sjsKp5Mherk9pnBohtnkeyrQ88jbouREAEREAEREAEfgaBuxLPEHIQcLhfFoi2Kp6TAByEHsohHHEPwdleu2CNwjkJz7X2EK5ZWFf7Pf44mJBfi7vFgw8HEM9d6Pup/FocyLNx6u3cB8pX2rcT/zN5TBk9dIYxS92JgAiIgAiIgAiIwP0R2KV4HkVjfD4Z4rKLzxXxDPGa+wUicRCNEHqwh0dFqlhFfTpJDqJ1zV8VnT3eHFC8R379meyVeNLJLsRr95PaQfy2PFBe8obfJpaXlPeZPIp/MIw56U4EREAEREAEREAEfgKB+xHPdvpaxSlE3igScTILUdhPWHtdejQBIjKL6TVx3E6As90z/iBCqX0XqOMwQn6hThCuOHlGvmZj9l5/nMTyh93AgtxDfI8fXuAHPnr+sxh7e7QjJ7oUAREQAREQAREQgTsmsEvxPIg7iNv6TPMoAiHqsljD+1XsrYll2Ef5FeIZgr6MgRV/GCDwAxG9clI95hdF8FwoQ8AnBiS6p3YRm7voorgLYHsvnSafyQN+YCMIbPKnSxEQAREQAREQARG4NwJ3LZ6bcMXjCPwHg6EnICyrCIT4g1jO91k841QX9YPt2U3yN1SByE5Ct9Zr4rP5g730GEnKFyfH/cNHajfhhDYmcOH3crG7nUf7I8qVDwkDFr0hAiIgAiIgAiIgAjsnsEvxjBPL4RUirInAfFJaxehaOcRoFsv5fhDP9mMa2RedyJ7xB1G6mk8aJKv1m1heEa3IAyfbeEXe7/yDQXxIWY3L+6UL9Zzn5WI8gdCtCIiACIiACIiACOyMwP2IZwjnCpDF7NPxdP6n6prwNGWc/k9S8gt2miIAACAASURBVP1EPJtb9mkCMYjCQUDHU+VBeDZBO44I1L3kp+raT/PBDHKBcE7c+i+T4MNAjLOxQfsUJ2JrAjmUjwK6n4IjQL2KgAiIgAiIgAiIwP0S2JV4vl+Mt40cAlXC87ZcZU0EREAEREAEREAEPkpA4vmjBD+hvcTzJ0CVSREQAREQAREQARG4AQGJ5xtAvLUJiedbE5U9ERABERABERABEbgNAYnn23CUFREQAREQAREQAREQgV9A4Grx/OfPn+VW/34BX6UoAiIgAiIgAiIgAiLwgwhcJZ5/UN5KRQREQAREQAREQAREQASuJiDxfDUyNRABERABERABERABEfitBCSef2vPK28REAEREAEREAEREIGrCUg8X41MDURABERABERABERABH4rAYnn39rzylsEREAEREAEREAEROBqAhLPVyNTAxEQAREQAREQAREQgd9KQOL5t/a88hYBERABERABERABEbiagMTz1cjUQAREQAREQAREQARE4LcSkHj+rT2vvEVABERABERABERABK4msB/xfDosfx8eJ/8Oy+nqtNTgJxN4O/5b/j6/Lm93lmSI++11eXr4txw/IQn3c3jnrPnsuO6w33iYhT7kgp1dnw6Py9+VMXDLHLb8XI/kbTk+xz3g6TMmCAdm+86dj0lO58def+K6dI7Zbcf4OW83Kte4vhHIdTP7Es+TRcwX+gcJ6PUu/H0lt9z8v5LeV8XtflaE09l8v3GTOhvbDip8VR9+NNWtDX+XOfi4e1yiWD4tL3ag8t6xfAlEiYxLKH1/Ha1L1/WBxvV1vN5Re/fieVlsAa0ndDaBnl+Xo52q8KJqA6WdWo+neb6RtPIoxH0jaWWx7XvLliWdoKQPBVvxDH0YcrO8Y/y5/pbtmA/bqYxPdhpa2XrMdfPy94iNL2SH5cSx2QZXN8DSF2x/WWJccUO0sqfja9koq/+XcHAa43g5nDl55rjcXowlcqC8lmXZKluC3djOcng5gh/KNuLmzaDyPNqJeuDfe5f5gVVkVOqG+Gnchfe3xlCNyxkjFhIvbofslvn5uPRYOOfYz9zWrw+v4aQxCqftvoj5gPeEAdaOjpKuLNbD0rhbXtwvtaazrww4By8OY4I52GDCeChzKudHgVjlwMLGQa9vcf5bjkde5+KYjr4Oy8s1J88hh8gyx1XGeK/DbCwfHqfn1qqef8m959tLSl7R3/Y8i2NujInKQ96d523GlnlOfUrzqORFY8/mWphXDrOvBw9pbBEiXMa4ez5ljpKv7Afr3uEU+s/mdLDJ8aMN1oiwpkzmlQe5vjYgB37lsfR0OKRv6jbYQjNcup8N45bGCMp4/p9ZtziHYQwQ+zx3rJ3zbpxTjtR2c/zMxvVVa1HMQHdzAvcnnsOmggWmL65F4PR7H4w06Pierx2PD7q66PC1FfI9X+eyumDyRsCTJPvM96Gb3E/PBUJl7SQm2+J7v6YFLt7XRa1xwiLXfXMObaPGJG8TEwt23Ay9bbMNln0z8HISObPYGk/4YnsM7Ryzrb47W9Z55HFWckD+Pij8w8Bq3J5HtYecwNMX/y6eIo8uULpgZQB5AcYG2GPL9kJrxNL41gWcN49W1vMsscR+x8YBBu63ti0x9DGQeXJdj4/7hq89BBOVF8zbkGiPPcwn7pdan8d+iCvHEdqWOdT7KN9zMJGxlRQ+GG95fqb6tc+aL48rCoDgjR978rrwg7nZ7+PcrX5prq6yQQ5hrHAUdB240fuTy7V51nJP62+MH/mlcUcxhv41/9zHfJ3LhlhTH0FIY47XPutjr/Qx5krwa7bPMCrjZW2O1/ED30OsGG+dS7FHYyj5v95fHv+FT8s3xRT7LY+7M2zr+tk/jNT8V8Zt9IU+7yy8nNc//iCT50/IY8yRbQ19XMfIfC2t6z768JLx08Z1Zp/vQ9C6uZDA7sVzGNhpAufNGTn3Abo1SKysbxLc1id0XihRwV7PlbVBi0bd17A4o8qFrz233OBcrn0xKC15Yo9tBz+WM/K6oB88T0z0HGpd3LDhDb7Y/oT1tQy7fc45B3V9WbebFjYzfS5uzpGva1jddokLrLzY6+f+7PlE9mPfrs2bbjvNC8plZM/2txjWDbqOoW07ZjPF4EjrBwqKp2ddr7bKxsr+AWdkG333vuAcJv0CwejjnrkMjs+/EcbEaIv58TUMc8x4D6+9/ry/ettJPzjfzifWXR+T8D19vaLPur9iyXPJ64yz60Iy+kwszTfWNZxYpr9DMJ9n94ToZDr/gwAO/Vsa99zOja3B2TiOw4eIlHNujnHbOMzEOsc0s8djaSy/rp/G9oHdbLwEnmP7zrYmH/o9A4ntuW2fO2gT6+Jdf536sPqYP6ktj9tzbUO+xSvH6ftP68/kJwSpm/cS2Jd4bl8B1UcH/J4WwWHAzAdFm6hDfcLkZeynX5dPw2UxwNfoYYPFKUKNl8vc9zSPOGGKXbxHcc0uc6x5s7A2Z3MdfdlkK7mOHHtZDYgn8+CLF9ZSv/UB5ZPZgFuY9CkXb9MWgUksZD9cTpmNefY215dxjjmHs3EzQ75uKeLUx+LKfbcVaxV4GCMT2+Zi6F+A8Po05+x9sjHmlWKxcYLxn/qN2/J1cU123F+fj81e+9bpfXMTKfZX8ok3KVe8xX3b4y5tObZ2Xdl7XbBAf8Doyqv7QpvW72OcPY7JBzeIoRWfve1o18Lycmt7ZixY3cZmwm0lxfFtHzNpzI21/J3mr5ZHXjxmor3QF/nkEOP0Q+MuBtwZ8/vGu87lCa+e2/mxxVZ5fvL7Zm9tfed6dj3EO/Q9rfGT2M3Glr9L+8njmtrv7IZYvVEvxze02F9ibF7ZgqUPTeW9tTHS+2XCKR0EVev+ku219QFjgOcP+mC2drT1wMb3JePHDYf8Qiwr6wLHruvzBPYlnrGIrcU9TKqyyPAksaY+UNrin4VHNT7YWnNaNwgfwKOtviiUMvd9Lg93xQIgLvQtEo+xbAjIkSdyq2cXW/mslJmttcW1l1UvvNgM9mhhrdVbH6A/nB/yjP025ET2pzw5lgABHNaYRb+x6fVlnGPO4WzclOOs77o9iyuPu61YafxbguyHEh76F2VeH/1U3yQbY14rsXibKmZ4Q6hzY9MO+UNYa6/O6cK5OdqYxD7x3fuCN89J29FBecfFYWFR5ttYseWBtSPEMfpifhwfLHv5yibZ2452rX1r6zGsjwWr23yHeBHFha9XtG3+qul8nz16LhtrTxBR18axMu4shs6YIzLedS5PfPVc5v3ClsL1xJaVm7219T20n8XrNrnvaY1/h7+eW/Y8uZ/a7+zOsp0I2s6i+qM95NwY4dhH3+t9Ndad5Oprg3EmvrP+yE0njDjOMK657QVrEVfX9TqBOxfPZcDlDakPovWBPft0uo7JSua+Shsqa5Nh21ovXY/RJ1/aAHtu3UK5Wrczz5VivnKxGQVZsQWBb/H02MeyHM+QEy8ME55bi1L32/l0+5xzLy9X15d1uyQiYPZc3JwjX9f23faEn9df/4o8MpiNi41cJ7H4QlyfKR7Zz+wDQj0BmbTdtnPGJpkvlxv5bM7biZ9J/r0vWBRt+RwC9DfGnFHP4kgfkEIcY5xsi6+bxYv+YHCeQ893EpeP6x5rrLs+JhHX/HUeR6kbc+/+Suks9+6j2OV1Ka89UWREX93O2tVG3JP5H9bN0L/Ffs9tw+40lFncbGNWHg0NHD2+FfE82S/i/jj6G+xH9+lubB/YnWM7ic/YBp1gNvyD6vkx0vuF5z9CnsTaiuhvMfDe8Frb+x+bE+9Zjtx2c/yMJ8/c1K6v64/cWvdG4M7FMzbnvpiXjb7fD4OEBqWX4Q+NfDzQRKB6XsSDdasMj3Sw6KX6W/HkIZnrlnjxdX6uPZkQ2S/lGnOnvKvZ9cXGZl7+jeJxAXL7zoAXcTNe7u0rLGxqvDi5+2A/tfeyyV+m17jPMiMmg6+zZX1c5XE25JBFW46bc+Trmgfbi33VvwkBv9qkvXT25a3cPt+3hnaBONv4LWOjbTzOqHMottCXqa/q6Rf+KMrrXnLyjMWdxmsQPWf7iTahCdue7zju4aflm3hwDnkMYGyXttn2yGY9jtK2fUU7EQMhjlzufC5cJ1J/5px8HOI0vM3d3v/DOG11sTZTX/SEx6vKuXH3GpUD2WR/xUipw+06m8y83PPa4/mSfW/7nnE3ZFR9tXmU7ifjMuSW+yWvJ8lfjjve57GYGmO+EYeyDnDflfix5kT7de9p3Gb+tvrpXDzoN4y7xBLjsrEe/RtbHiO934utXgZfWNPiwYjnzZzy3Aup5Djnc8L73b7FCHbPtL1k/DR7mUfOOQStmwsJ3L94tkSxWax8jdYG56Q8lvUJU8zWr5293eVl2ID7M07jItTLsCDMeqxPZK9/OJVPjG2RGtvEfKLtsuAhJ44pT66yYPQFpTLGZBwmbokTC6tF5b6wmNWNETm/nOLC4DGjrjfO4rzEV9rXn1xCLAOC88wih9ivW2Vb42zIwePaiJsZ8nXNJ9vjfi0/VRf7NmBovHsfx7z6+6Gd3Xhb+lkrG/vcNz4UMIZsQzr5T6y1vm++ax3qJ4+h3vN1iWE+BjFm7LX5SDFcUxbzHX16Oa8nz6/LyX6dojLIcUeukw26rh2eR+IYYmGffgpdYitzcIwzx9E+9Jg//Jznir+h7eCbI4vzqfxMXB8/W+O0i//JB3t20a5LntznYQ1Cv+e8NsZc4OJjKK49fa3u84nn2vvHliUV2WEMeboec/dp72WWm2OrMesXsX7vI+TI86e3KlfDmKjrQP/F0JIL27ja31Y/5YDAA3uvn8wyrw22E0FrbMNYsjGPtSnFtbU/DZwmvmIqeUxzv9Sadf6F+Lxoo+3Z8YO2lVmY43FNH3OKGehuTmA/4nken94VAREYCNjCyBvJUEFviMDnEBhE1ee4kVUREAER2DMBiec9945iE4HJ17U6KdCw+BoC5fSKTxvz6ejXxCEvIiACIrAvAhLP++oPRSMCI4H0tWL7unGsqXdE4LYENr7uva0jWRMBERCB+yEg8Xw/faVIRUAEREAEREAEREAEvpmAxPM3d4Dci4AIiIAIiIAIiIAI3A8Bief76StFKgIiIAIiIAIiIAIi8M0EJJ6/uQPkXgREQAREQAREQARE4H4ISDzfT18pUhEQAREQAREQAREQgW8mIPH8zR0g9yIgAiIgAiIgAiIgAvdD4Crx/OfPn+WW/+4HkyIVAREQAREQAREQAREQgWW5Wjz/7//l/1tu8c9EuP4TAREQAREQAREQAREQgXsicJWCNcF7C+FsNiSe72mYKFYREAEREAEREAEREAEjIPGscSACIiACIiACIiACIiACFxLYpXh+O/5b/j480r/DcrowofuudlpeLO/n1+XtvhNR9CIgAiIgAiIgAiLwIwnsTjyfDiya+frfcvzxilLi+UfOMiUlAiIgAiIgAiLwYwjsSzyfDvW0mU+a35bjcxXRBzp/fntdnvh0elb2/Locmxiv4pvbURuI9pcj2a3lKPv7kAR8ixcin+KGnxDD4/KUPgF024/Ly0ni+cfMLCUiAiIgAiIgAiLwIwnsSjxDSL6QRnbqJkT5UQYIUxbP/LjDavm/KLgfTLCWfoXv+LjI4/L0nB4hQRxrPiDI18pJgI+Pp1QRDh8/csgpKREQAREQAREQARG4XwI7Es84YabT2xWuELr9FBdtqxhuwhUnxfVE96Gf/GYbuP9bxW8XtjWeZnMlPpRD+OK+ieUU49JjgoBfcJINGyv5620REAEREAEREAEREIHvIbBD8QzBuwYEojOJ2Co8XVBDuDYRCuHabUMcQ4BDPA9CFifJTewmv+39dGo8xLAs8Ok+JuULbLW41xjofREQAREQAREQAREQge8gsCPxvCyDgAURF5oQrRDCuK+Vvlo8Z/F77n6ReEZ36lUEREAEREAEREAE7pXArsRze2zhgYUxxHL/CTeIbJwaL0uvMz/VRfntTp5xitxiyI9cZDGdxTNOmem5a9jUT9Xd63RS3CIgAiIgAiIgAj+dwL7EM4ng/Id74ZcuIEzP/cFge/zh88TzECd8IkbcD+K5n0Sv2vjpo0/5iYAIiIAIiIAIiMCdEdiZeC702glsE8d8El0JQ5yiTns22VRq/bm5JlxvL575tNvEr514lxPxero9xNDFcnuuekGb8rz00/FV/ycpdzaBFK4IiIAIiIAIiMDvIrBL8fy7ukDZioAIiIAIiIAIiIAI3AsBied76SnFKQIiIAIiIAIiIAIi8O0EJJ6/vQsUgAiIgAiIgAiIgAiIwL0QkHi+l55SnCIgAiIgAiIgAiIgAt9O4Grx/OfPn+VW/749ewUgAiIgAiIgAiIgAiIgAlcQuEo8X2FXVUVABERABERABERABETgxxGQeP5xXaqEREAEREAEREAEREAEPouAxPNnkZVdERABERABERABERCBH0dA4vnHdakSEgEREAEREAEREAER+CwCEs+fRVZ2RUAEREAEREAEREAEfhwBiecf16VKSAREQAREQAREQARE4LMISDx/FlnZFQEREAEREAEREAER+HEEJJ5/XJcqIREQAREQAREQAREQgc8iIPH8WWRlVwREQAREQAREQARE4McR2KF4fluOz4/L34fDcvpxuN+T0Gl5eXhcXu4Jxumw/H1+Xd7ek661eXtdnh7+LcepgTvk8V4O3C4xPR0el7+HvQyK7+uTt+O/j401ZqzrbyZg42ht3p8PzcdCmxMfHZMfi+V8tFfUCOvh++P6yFyJbJdlX+vPFSyXoi/afhrYXmPnFnXLGP378Pgpa9i39dG3Mn1vv1w/r/Ynnl0kHJaX58flaa6e3kvnTtuVCdYm+z1kkYTe1SFvTr475HE1gEmDxPTbFsZJaMvyS/tkykJvvp/A9RsY+4oC76Nj8mOxcFwfvg7r4ffEFdn+IPH84c75gIG0pn/A0rTpvvaIaYg7evP6ebU78WwdbqL5ok/JvqjYKXX5F8V2WTynZd7usJxs8Na2fooX7PWT7xLTqZ6Im69yOuKDc+Y72On1faRU30c7MYPvdErruaPscDh78hzq08lNeZ9PcuqpfjudwSl/ZZjiKCfAteyBPsx4DmyXFlNmyt8ehPfHk/TA8nA4f/J8oL5rcZd8ZuNg7cMH+/X+aGzGee11uTxxWOuHYmmDtdl5fl2Odpps/c4+rHFgV8ZliaWMDYyjnqON/cPSxljjsz4nPPZWz52mcRfjfznytwPF7gv3Cff9iDLlZHn3+RaqJ8alzPyV8TfEHVj1cTbUm9g1pp1hiKKsR5iTIdYay5HGYyiPdvwuxci5e5yHV1praN5NTC31JA1jwF7D+Pc8MYfrmOB+5lgwBuv4s1iejq8+Dswu2HiMjUVcB+Kaccaf20C/x7EJX3Hs9xgyihCT53fBmAxsjBFyWYmFnM7ZxDmSv30LMTZfZrTGSl8keV30Uxur87jiGgaeFGy9HG3SGmF9AX+paYi71tlef8zANovkon7biHFKY9hyx7i0GGls9jGPfoPV5LvNifi+z5PGdqUtr8Ve9zJmsBbHb48zMKW51drZhfvrTPr4DLX6Tah/WF7yt5M818P4K/v30/GWGqfm+mFmNOc9/jS+q31Mnci18y5z7N9ynK7T83nVwc6vdiaeLQmGzsnnBPKCw/flum8i6R6DDBMD923TK5MM7cvi1GPBYoXyMkFqp1ZbbfHHIoKFCb7guy6csFU6vw8Q+Or2IgevD9tWlAZYWeTK0Ip1Y46laV+cxgWd+HoOncfQ1mLYiCk/luExtvpY4KL9nnWJgwUHt485Vh7NdrfSYuayurissWaWbok5JO6xH86wrmMCYyBGWe8SU48Fc8XWWf8whnFTGbUx5tm6COo+4pwYuKUNnRn3jRF9VP01lrUPg3/KylmhbY8NGyPVbJtwjzv2aYg79wH3j1+DD3jRwuz59nKOIbJFW9S9be7FF8U1sAqRFZFNnEt7sI193DZj9FMdd228u6++BkRbxa+/h/b2VmB+xt+QS2XX4rd7xJ5tQ0xQOaPAHAi2WBCmMZlzz+u0j4czvjjW2p7HaVgvAqecW+HQ+gG5gDOP4xRX7o98z4hCWc2/z7nUd9wQ8TS2RWyxmHPbK/tnGSZ9XCXTBiN9UKf7GidzDXkU4/ThO/UzYm99Vcob68A2t033VzIrc4PGUB7/do8+zlCqrxbnMD5Tg1zffRHzme/GZOzPsr/QhxhvX9e87CvH5uU171r30nEW1xPrvMkhDZQy+raOy+1xUcZU5536Ns2rRHd6uyvxnJMPi08KP9fl4mnZ0Pk0qCcLn9uonTLEwbbcsXUM2+No6maLSRIGQ6nX7ZcO5YViXFjY9tyv2Ws26uCNJ4V18UZMzWS3N2WIeps5ZNslp74IFCOdbxnUoXxiH66nPLg+X3soxKIbWbmaxEI1ez/VN9nXMCZCw8ki2VnHBYLa8aXZp/7ajGXYjNIYhF2KeexvZkGxhrYY81y3VBjtoeH8dciHqmVbPL572blxFsvNhp+UQxAYC1yT7+l4C+vFbXPv+SCI0T5Kpq95TNKYsfrOub7nvkLOhRE4zGNBn3fvrT/SGM3+eot+5fG0GHicxf5CizFmlNQxHmzRhxBstIlHb53nCMfCtcr1wGaSexk7lRfNtdHa2MfBPvdp2uRDvdFweCfUDTZLtdgXoWn5cN7Y1nFE92ENO8cimt7+lnmIc94vbQwm234bbKRxxWWzPuJyvq5+1pkVP20fntWfcpolUN4L/Zeqzcp6bOdj6XVboPSBxN6bc0cYwT9z4utmmkQ9DPhr6pta5rbrWItxcv15fFa/9MGZOXYmvxBmvdmReGYQNbrZYG5Fax0wmdjWxjuRPznxJjD6Xu+wLA7N+KzjSme1r5awaG8OprGDccoXxGVlUHLir3X6NU9az6V9dVUa470WX/oaNg5SOKyvmzlkPolD81P7b2JrzhMxrLMujLgv7Zr7GTbia2YxZe1ppTEXYi9+wZNtZPuo005ugp0YW7tLC+3QP8HGOI6G+mbY25Q54TFijLpTskH1Wjxn/I32Wst+4Tb6mIVo6xXq1eCr92n3c2ac1f7rC+lhOZndmrPx4T5rMQTf7V0Xod1WbNtj6vWHq5Xcx7bUD4OR/ob3b5tbhY/bYoGTBKS14XXCrPE4GWLJMTd/xc45fy3abKfFaLmib8/3Z7NXL6L/kduQj7dLftoc4Fiypyy06z3xGOY4TudqnTjWzsQaxmCOi+MHuzFeeyfkH2yW+tz32UJkG8eJ1yV7XneTRbS+5TeIcmuWxw75mY7lVg42vD/AHs2X1v+IkXhTjq00PxqBAtcEcV3w8O0bQoz3tKa3puGC+5e/SQmVwrxFSe+zYiOOuToepqI07+FmkTjAQc2xjXWwY058Xdut93fKtfUd7busCd02azraS6jtZev0LL+W6PRiP+LZoWwlH+Nf74DJxLamA2hMJi/0rz95cPWBN7E3DHoG3wcAJrPbmg2smlLPpbTlOM6LZ84jMsJdW8wwafNCior02mOiN3F5bkIEPrOcYAj9knNgnlTXL2dl0UfrO4sT3LMZMPBJVifgyoKHpgOTCQer6/Xc7taiDKtrDKi8GP3QyfMQu9mkORHGqLsmplSvRRVyp7q1wmivtQwbIMb6NL7WpGx4Pp/C2GJBMMbQmuMCbS12Hxf4cGWvGAOoXF9Dnr3M4r1sUe5t/MrtlXVulvvIbTuvNtYwzineNg8oBLbfc+gVuB+4bo89z9Xe9pw/Fj6z3OMGvZ1399qvov+xfcynlNvGP12np2Ih+QJzrCV032uOV63P0gcFMLEWIVbq08iIbZc5UoTMfCyv2yx2uO/ZcouH9o+hLsUY/GRDk/vBFtchu/52vue69brxRX+ENoVTY01l87htnNQxT3Xhdj32cfxZG/cBjliPYCy8nhufofIXi+czsTEnvq4hX8ssZdoe8QksJ37W2uH92N/Uz6hw5nU34nkNqL+PSUDJxMSpAAM0t7GBimeyBtBpQsHGez6VTSZEiHXwzeK8xIHFvGQ1n4TnyyoT+DvZs0P0SZh5RHx+F2LO5bBJPyUX+i8wmOXEBif5Tez3FhfU9/blDzsiy25l/qFkYpuahBzt/c04Ke8zrLft1AACUx4ztTzEMuYx7U+KayxnG3adRJO3xXtct8Qz2qtxprmFdwe2KKivsGd/VMl9ivffwqMUqXG7tTjjuDC//kgTNrRWFxdjbhg7JY6xvMcEG/3Vy5Ivzn1sO9rv1qwMfVDf5XGQxozVcF91bRxjKWMWJ2PXxTI7rTrnL49jzofmT0948yrmM3IL+UzYhPIrxfPwrOZmpFbI+Z2Jlfv0TFxFXNM6T3GE/ILNUonHITXzy8g291taC2ldyXZm9yGuXGGIc2QVm/AYqiXBRuE+E8/TPuS2fF1NrzPj/u0RhvqTMdhqTsq2OM3Kuq/zsfS6LbFwWBM+tJ2LjTnxdTNNJ8ktYbuYxxmqYA2rf1Td+vHMwddsXkRmk3GTHaf7nYjnjQkxgV9yyG0YfCnrm2y6H2yWtr0j4ifEqwcWRLoF6gsJfd0y+E4LkdfvJwfum0Vv6kAfAOwvDCJmUnNqdUsZNko3G3xfwddzogmRJ5fb5U1+Elf7sFPjyqKg5V3i6s//TvJoX5Gyz2agXsQYMHHt5IbHAbfKrEvfVB+BXdpMEA+LJq4/GRPs168T02FMBhu578xCmgP5PvVRybWzcH+rfTT6iwtTzCaXwVcYi7HJ9LTaqgRbKQf0aV8HMLZ6XvC91ufNR5s3eR7dNveQjzMY7Xc0uazct8eBch9jnqIf633L3fn1eTzGknO3SDiGct14J3/ZHtj3frf2NGfP9mcnYVdur80xjqvUC/7ddl9nh3Xa86JYoqs47rxssg6xD772YPkPoXLbEntb44a53eMKOZnd7IfiuhXZ7wAAIABJREFUDnWDzVJpWFNy28Y27VlWL9jL+WzHFceQG/Nvgn0cBbslIM+D5mNsn/u9smzjqsTWxnywn+NO96FuiWWLWemL3lfTe8zFYq7/b+5Hvycd0WvWq5Q36qPP/H49liEPqx9iM/u1vdvamDvMia8R6eqjLhgnFOdMUCM3xFPtXjcu0t5xZr4PuJdl2YV4HpPmUNMADkXlNLU9c4OB4nUwacpXpG1Bt7KhQ9OESgvxVQPL+58eP7EByAN38D0uRIUH4i4/FdUmO+dfrz0+esYHdcv7NMgHERcZtZN5+PBYKRfm2wZwmdAnfparbqh9E8em222F/kjMhj9uRDz+Wicx/+RMmOSlsjOcvB9MpfxeThtjzRvW8sr65UQLSsphFOEbrCdjIsTpN2hfFpZhTAYbpS7GQbcFGxhb9NVBih8/W9RtpNz9p+owtkZ/2/yjLRNP22uAZYA28Fmyyn6KnfVxNvgJ3DqpfBXtcgy3zT3nE4VBjso7rf/kpW8mJZ42v8IYrz+ztTGP+WR/jKX4X1tvvHTTH/qw9s+k32Eb8Ufu8VuHgUbzbf1zvl/gy/ePvE7TfEAs7G/Opvhs+1EQeHWdn6zTM27+M6pYv9IYRdwlrsQ0CYrVmJNNq+d2eWyExthry9gf6g72tlmwab9ufdfHRn+fxVRpCQZg3dep83OijSnLdYg78WQeQ90zzCxU3idz31gZ+rikFf435DgZn6Gy3TBD/Lwfx78Ry9CfQ2zWn70fNmNjTnxdAx58pURa/9S5Ms6/OrYm7EJc4SCstOFxkucw2hZ/Y/0U5j7Ecw5K9yLwUQI2McZJ91Grat8I+KLIIrKV6GLHBHzD4A01xWobyC3nzTl/yb1uRUAEROAuCOzi5PkuSCnIOyJgpwf9U/IdBb7TUMdP4edOD3aayO8Ky0+a+ANO7Md88jKewl2J64y/K62pugiIgAjsloDE8267RoG9i0D9auqWp2fviuOnNapc8TVpf071pyX6s/LBV5HoN/7asj8Kg8dcPv6Bc9vfz2KrbERABH4vAYnn39v3ylwEREAEREAEREAEROBKAhLPVwJTdREQAREQAREQAREQgd9LQOL59/a9MhcBERABERABERABEbiSgMTzlcBUXQREQAREQAREQARE4PcSkHj+vX2vzEVABERABERABERABK4kIPF8JTBVFwEREAEREAEREAER+L0ErhLPf/78WW757/diV+YiIAIiIAIiIAIiIAL3SOBq8bz8z/+w3OKfiXD9JwIiIAIiIAIiIAIiIAL3ROAqBeuCV+L5nvpXsYqACIiACIiACIiACNyQgMTzDWHKlAiIgAiIgAiIgAiIwM8msEvx3P8vXj/+fxe7v+47LS8Ph+W0v8AUkQiIgAiIgAiIgAiIwBkCOxTPJi4fl7/139Px7UwK91SM3CSe76nXFKsIiIAIiIAIiIAIgMDuxPPb8Z8L56fDYXkyAf38uozyGSK0lp8OpQ0JbdgxEf5yeluOzybIIVrR/rC8HKpQP5SzYG7392E8+Y6n4tUOxRjbc/zw2T8YvNTj526TY0QX6VUEREAEREAEREAERGAvBHYmniFyTbTyNePC+12EPj1XwQ3xXMU0Tq9NBD9NxXO3YUJ2EL5++g3BPSl//hcF/uC32C+n53PxHIVzjYfEOGeuaxEQAREQAREQAREQge8lsC/x/PYaxCjEbHh0owlUiNoupku9fL8sy9CmC1mc/i4L2sFub5fFL9ogvvnpeG//t55qLwv8wke9J7EMm/DxvcND3kVABERABERABERABJjArsQzhGMTy0lMW+BDHXuziuMociFQvdXqYxv9D/cgbPtpdDu5NvE7iaWJYRK/Dhd18ez2mnjO9VD/4XFpDNyg/kcEREAEREAEREAERGAPBHYknnHyOxGv/txywfUt4tnEMYRuEMrp5Bgn3BDL+T6fPMMmieYg2PcwQhSDCIiACIiACIiACIhAI7Af8QyhOROS9l4WpO2P/7roLqe1+b6fTM/+YLCfPKMdn1g3Tmak/QoIHqmAkMdjG3h+eShH7M0GfCTxze50LQIiIAIiIAIiIAIisDsCuxHPEJ7D4wrtdBaCEyK3n1C//w8GYbP0SxPDScAPYhjl6Q8GkUM7PUa9QTyX2C3XeZvxVz52N3IUkAiIgAiIgAiIgAj8QgI7Ec841Z2Jxi6WIWL5FNhPpMMzz6UXuxDmX+6AWIY/3Pee7+26wO2l9ng1RLu1zSfHsGt1Zn77M9smsPFBodsstnue7FnXIiACIiACIiACIiAC301gJ+L5CgztJLoLbQjeQYwOJ76jWL7ccxfx8DP/I8LLLaqmCIiACIiACIiACIjAfRG4P/GM0148EtFeRzG9/vjE+zopnxDDfhPT7zOrViIgAiIgAiIgAiIgAndC4A7Fs/1eXf096Cac7f9FMBIfhG74lYxY9/K7fvoM4dz+kPFyI6opAiIgAiIgAiIgAiJwpwTuUzzfKWyFLQIiIAIiIAIiIAIicN8EJJ7vu/8UvQiIgAiIgAiIgAiIwBcSuFo8//nzZ7nVvy/MU65EQAREQAREQAREQARE4MMErhLPH/YmAyIgAiIgAiIgAiIgAiJwxwQknu+48xS6CIiACIiACIiACIjA1xKQeP5a3vImAiIgAiIgAiIgAiJwxwQknu+48xS6CIiACIiACIiACIjA1xKQeP5a3vImAiIgAiIgAiIgAiJwxwQknu+48xS6CIiACIiACIiACIjA1xKQeP5a3vImAiIgAiIgAiIgAiJwxwQknu+48xS6CIiACIiACIiACIjA1xLYn3g+HZa/D4/077CciMnb8d/y9/l1eaP33nVpfm5h52Lnb8vxGXnFnKYm3l6Xp4d/y/HDiU6tb755Ojwufw9MfbP65YVnctpD33oMlPvHWJyWl2/qw9gpFsfj8nKrLv3sufNR+2fGWWSzj7uPjTPO4cZ9zabPXIccPtqHZ3ypWAREQAS+k8CuxLMvvg9RWLqYIQGyB4H1rg7zDT3mtmnnDgXAZj5W+FU5fWDjlng+24vL8gG+F1j/uP2vGmcXJfPVlb5PPIdMP3uMBGe6EQEREIGvJbAf8WyLbRLOQMEnGiye+brUzRtHuW8n2ThRdF/jKbDba6fefOprdg7L0U69rXz1xDr6e8KxcfD3uLT3kWB9LR8eSlxPh0M6eeaT63QyDGHOfixXf3/M09yxL88JbFBW763e0/HVTy7BcfsE81yc/5aXQ+VoLMnvWn/CL9e1HKb9xQwwngKHdf7BXu3jMvYO6/kn23/bB704FtaYBZ+tbRkQ5/ro8n4psbwc6FudYQzHeDPrOkSLsG1zpHwYtDhfjvZNiY01zJs0DrK/0E/Wrn6wDO/Th83w/niKzqzGudOiLxerfTbjTjEkM3bLfvM8Gqonv7wOuJ2L51xkW9iDe+3r9i1DrLu+ds0/3HJcPlYPr/QNWpxLrW7oq21+AyO9IQIiIAJ3QGA34rktvGeg+QJeN2K+Ls144yibRt+g0r0t8LShD7Z8A8DCX4UFCb0xzFKn+0v3vnHC3qS1PSrR4sGGhw2x3jf/6R6bMspxD0GyxNyddfPlCsA/FEDgcV/4dRNEEKxreaS4qt8mxBBX8x3rxz7gvjReMQc//Wz5IYcaV+jbbCffx77wGMCxiSP0Q8q/5gNuiLH3o/nqbaOnFLMV0pi7qI/ItsfNPIKzknMTqMir9UNmklgHWzXO1hYCksfE2J7HVMmTudT4wD30X+TioTj33j6yqmOK2ITwz/RZHIO1vylXthX9Is5R2Jc2mXG8Zz5+TfHnvo1+c75s90w/cDJ2nbjaWxxXiYPy8/Ga+mGtD7Mv3YuACIjAHRPYiXgeF/k1pry58XWpv71xBJthg7Z2fRNAPds4ihhmuyiNr2Ms2EyrqPCNiQUGt5/Y542MRFVrxeV87RVGnh4fNrZmBBfRP2+YfF1MbzyLfXWckREznMbbGI75IRN/HfqWNvxQcbzJfq/KH6fhTWzNx1XxeiaHIbT1PvKqwxhgA7Ftrp9z7uUr4zXwjQLL26byEskWi2QjtC+c+geUYq3HvJ1bqb39v26r9hlfb7ealU5iadW2ymL+22NuwtF4tfWL/ASOCGTSHkWTMcSxjGzIVxLan/5oD2LWqwiIgAh8A4EfLJ4hzOpjC03QVMq8sfimgccb4uul4pk3mdaPTezhVGdFjEw2rWXpm9y4aZmHXj6eGI2Cw20k8ezvta/gu8DkXPja85rGWjK+LM7EgOxxe/dLsbVHN/x0NW7ajTcuuG8haGErMUATvGZOl+Vf4mkxtrFGfQQH7fVMDrXeJX3kVYljc9EuZnF0/9usm5F+kfhmRjnmxqUJvGrKY6b5hr4J9kuc3UaqP817lm8Pv1wlu6HP4GP8QJ2t2H3ONwt9tAn1kGstZIZ87cWco1+vz6GyLpS5HPxh/PvrSl7sZxKX22ucrEIfQ37Hf2gc+rAa04sIiIAI/BACOxHP8eRliy0v4Hxd2sTFvNnxTaFuiNi0eHGfbBqtrV+s2KVKw4ZnZbzR8TW188upf/NZNrkxT2vVy68Vz27PN1FswjE/zoWv12MtCV0WJ3yWNhw7tx/81urlJcYbiuyG+5YL7f0qIvrjNVyhCiGMETcVn8vmeCEezCbscQ6hj6KbQXjk4mv6yNtOxxCs0ljBWyR8tlm3Bv0i8c3tI4PerF15rGU+QmgGG8H+mb6e5j3LF96LvfU+Q73yAbSMlzRma5VzfQRLw+tkHHL+fO1tOUe/TvFwOfXr2X7IgQU7pZBjGe3FvuG6q3Mw+9S9CIiACNwhgd2I5/IcZNoUKlBetNeuS9W4mA/94ZtW9XHNBk0b0mBzEmOrw/5mm16vOP6UGG9kbAdtuJyvvXzr5HksgwicCZmwIZrtwRcCqqI1P3fL9fkazSi37b5FAw/C/2gJgpVL/Dr07VBaTgrDCVqv4zFcKp4nfjiHbfFc+mGew3V95NHP2La0JvOC6seYW6P1i5T3MEaoT2dGMmOrE2wE+1ucvOX23MkBBNulcDv/CTtvdr6Psut8z345f74urvhRKYsnnRw7b7xH8Z7phxzPbG5zLBxvaUu+Nvtw8KQ3REAEROCuCexHPGPxTeLLF2z6jdqwgIdNo399WkTguOnyRpBPRoofFu+8MfD1Wn+XOl0MpXsXK2w/2gl54Q/t2iZZcml/eIdyiDwSQsXquLG7fa+fuVTbxJg58bXbHnxxHpfEySe5kVFkEMvMSyjPwoDjsrImjosdfDDAH/X1fuL4rzx5zjH4Pf/hp/mGqIl+/C63bzlc10duq7Wd+Kkf/jqT3E9nWGeTgW8SviWY8osMGJ/2HuUa+hH9at8IoH6yX9oyx8gn2qu5rXGnODxUv+99Fm3FuCOGGAPGlZ1U97HGLbbHIc8zvnYLqW+9vI3vnC/7qWXgasZy/hxiHSdtbrjf3i8Dm3SoEOLOfRj86EYEREAE7pvArsSzofQFun61PvvKNC/gvmC3r+JPvmm3zQuLP+y1Dcc8lU2m/6FNFQGoGzZB3pC2Ohw2y1fSbRPyxOz0aF08e0T2zGD1H39+yg2En4hqQqPZHsVF4wCu2EQTl5dT3GR5E+RrczU7nfL32/9gM0+PybS29JN/litiQozcRynOLv6KszxWer7oh8oEAgl9Sz5b2LhoPktfncufx5/H5756X6A8jAX4Qs6Ii8dciwOPN6z3kZvz+t0vuahj/d9yPPbHVjLL0q99/A3lwWDkOzDyuqgDmzz2xzFS+hJ10Lbnk/s68wRnF6/+s3m9bQjd9SNiqqI59FmKbU2Em9EzfZT9FuFKvmkcMkO+dhtD38YYy1oR2Y1zAX5Rb4iuvMFz5fl1OdnPc9Y489qLNRS+YtyxD8e2K/71tgiIgAjcAYHdiec7YKYQP4mAb7AkKD7JjcyKwM8i4OL6jCj+WRkrGxEQARH4VgISz9+KX86ZQDy54hJdi4AIFALlRBenvfae5o3GhgiIgAh8LQGJ56/lLW9TAvEr3mkVvSkCIlAI8KMV6dEnIRIBERABEfh8AhLPn89YHkRABERABERABERABH4IAYnnH9KRSkMEREAEREAEREAERODzCUg8fz5jeRABERABERABERABEfghBCSef0hHKg0REAEREAEREAEREIHPJyDx/PmM5UEEREAEREAEREAEROCHEJB4/iEdqTREQAREQAREQAREQAQ+n8BV4vnPnz/LLf99fnryIAIiIAIiIAIiIAIiIAK3I3C1eF7+z/+23OKfiXD9JwIiIAIiIAIiIAIiIAL3ROAqBeuCV+L5nvpXsYqACIiACIiACIiACNyQgMTzDWHKlAiIgAiIgAiIgAiIwM8msCvx/Hb8t/y1/7vZ6b/Dcrq0L+z/vvZwce1LrV5X7+11ebI8nl+Xt+ta3qj223J8/rccv8f5jXKQGREQAREQAREQARHYF4GfJ55NOJto/dXi2YSzfQiReN7XdFM0IiACIiACIiAC905gl+L5aeO4tJ1O40QXJ7wPh+UE4dxOrvtp9enAJ9r9/WU5LS9e/7C8oM7htMDP0/G1lk/E6Ia/BXEhzmGkQOD2uF7qYXn33Y+Nh/ey7+ZntAuesFFO9llYo82/5XisHz4eHpfSDmUWJ3MbEtIbIiACIiACIiACIvDjCdydeF6WLuZeTny9LEsWlFXsReFcxWoTmxDPUcRGodnL2mMYEMdNqNc6OPFGefMTx9I0JpwUD22RZxW8KJ/6Rt0es4ngeT4Qw2MbCOwnP8Hutr79RD9i1J0IiIAIiIAIiIAIfCmBXYrn6TPPEKWGJ4tHLoOAbu9VcUwiFkKynPR28YyTX3eB56/RrvmE4Ez9hPJcH/epehHPfPrLFSBmq6812y1HbmvXaA/7uKfYK6d8uoxT6ibuET+44j671L0IiIAIiIAIiIAI/AIC9yme/ZAZp6EkCK3DIPIgLCE88ylteywB4jnagcCGmOyCNNbrj33UeCAu4Rf3eTAhzhZXtAv/LuiD0DVDEMNggEcs4ATlEM/IsddvH1CcU66/tJPqlv+5fOBaryIgAiIgAiIgAiLwgwnsUjw3wbYKHmKviEE+Mb5GPJdHECAs5+K1xwKftV4Wk+fuV3KBSIaYbbnA3uG0rJ9SI/Yk3Ju4vkA8u7hHbqgv8bzSXXpbBERABERABETglxO4S/GcBWd7Dtk6Eye6OHnGHwSunQCjPP0xHHysieehHH7hB+IX9+cGGtq3uCFoszCeGUJdiN+1+/gBoVvK9SWeOxtdiYAIiIAIiIAIiEAnsEvxjFPY+AphiNPWco9nc5vIhQj1xyFinW17UVgO4rid5pZ6KI826XedN8UzxOr4GEU7ebaHM/DcdXvEpHZcyJFsNKGe7NOvh+R4iz/UB+Puu3HdzKcPKF2JgAiIgAiIgAiIwE8mcHfieRDLEHX4pYomck1UdjGIdhCPXaRCjF8nnvNzx2YvPF6BuJqgzcMIgrWL3yZUURU2KA8UtRP2lWemQ3k9zWYxbhy6P8TSeaFuq4NYVvNpkelCBERABERABERABH4sgV2J5x9L+b2JSbC+l5zaiYAIiIAIiIAIiMCnEJB4/hSstzE6nP7exqysiIAIiIAIiIAIiIAIvJOAxPM7wX1uMzxKQs9Qf65DWRcBERABERABERABEbiAgMTzBZBURQREQAREQAREQAREQASMgMSzxoEIiIAIiIAIiIAIiIAIXEjgavH858+f5Vb/LoxR1URABERABERABERABERgFwSuEs+7iFhBiIAIiIAIiIAIiIAIiMA3EZB4/ibwcisCIiACIiACIiACInB/BCSe76/PFLEIiIAIiIAIiIAIiMA3EZB4/ibwcisCIiACIiACIiACInB/BCSe76/PFLEIiIAIiIAIiIAIiMA3EZB4/ibwcisCIiACIiACIiACInB/BCSe76/PFLEIiIAIiIAIiIAIiMA3EZB4/ibwcisCIiACIiACIiACInB/BHYont+W4/Pj8vfhsJw2eZ6Wl4d/y/GtVnp7XZ74PrV9O/5b/j6/LqieisfbM/bGBh99p+T9sp30R518uP3p8Lj8Pew8yDNZbubw5f1+JtiV4s0cVtro7fcS+OS5eTpctza9N42dttsey7bOPy43WRfvZG7vtJsUlgiIABHYn3j2jeSwvDw/Lk9NGVPE7fI68dyaXXrx5QvtJ2/Ql+b92+t9eb+/D/i24HifTbVaI/DJc1Pi+e4/kK+NHL0vAiLwMwnsTjybKDDRvH1SXE4j/j7YCXU9laii5+Xwz9/zMjppDvas7vPrcrRTVLNRT1JdkFSbT4fD5kn24v4Oy8k2vtoGdjBU2B77sXIreznaabnF8B+X//v/qLE8WP7/y0/f44eH7ROY6Cuf2kdeHKdxeTq++umOxfjyXy2f1B651ri5/ZZfZw42G98KLEv9IHQCj8d4ErfSXwuzZ/v+/vtyGPu9CKfWxzSmStyH5WjfalieoayNgsY2j4EwJr362MdrfP39wyHY3jyd8z7sY+wv80K/tr5K7JBKfY0x9fmTqpWMfD6f6rdJ5p++LbIaq3EV7qtzAGOSx4DN42Av5cF1sW5QTjwPfC74Fyyx/2M8lDHbxtrC39BwuXOusYX3e7zzuTMymY8h2ImxW06Iv4wf/gZptE3ZWUdRH6Y+N+bI2XLjvGEk9EuPw4q3x3KcE1b36bg2ni5YRzD+6vhpc3cyf3mcY2xszTGun9fQ2J/oH8++fIM6rH0lb18zELNVr3F/ZN9BLsV2P9Uv/XDNmEDn6lUEfh+BnYnnuvjZsxW+SKSNNvQP1bX3sTi3hbssPtgswiZT66LMmvvC0cQPNooN//CX21T/0Z47cIGFxbcstLyIFp8oD/GWAFfE2TJ80IhtCwfYxSaI3Muiznnm+tU+51Wvo58YRy4rQpfz5c4sPnnDCfwm/VXsUdwuQnB/eQ7BTxMIsDMKCq+fxthULHh6uX28Hxj5h4i+meVyvi/jB3FW9vlDDxBXfnkMQOyzXWuS72HGXiOvcVxz3VafhSr305VxeZ9jvmH+oS9w3xhE1sP48/qd3zbPYqvzS1nmPCCIERvn7E3reOdy5DXj7+3L3PG+Qbs2XmleWV0vLzHz2PS2EGJk00PyHMhOSDHbSvc1f6wpoSnl2/nF+bnNfla3z5G4DlSubQyk8cp9XmPufEpb5FBYdR4lRvKbksxzhu+zrXhfY279jxzS2ESfI+5WP/bFufm5yfqqMZEA6FYEfhmBXYlnXnCsH3yiY9EYOsYWmb7AzMQ2tw+2eRF1u2XB6os7xDjZz/4HGxASfcGNTaIPjq3UK4tgiyHZt/pY2KPdbbHjeWeGbrvEGbhUwzG2GFcvi/nEmFLfkN15DhNbnD9fu60SU7bVY8tj54oc2JdtJm2TQoac2yRuVNuIE1VG9myPr9Giv3KuxdX2M/+9Zbli33yd652/vzLOKvhy38FPiIX7oq4HrV0qyx8KzZ7bIiHZ5lZ11svzeMnzP44fxIpXtlPeK/W7MEPN/hr6L4wz4zmuO1bfc/e8scZY3cPyYt9i1QNDq4fr7q1eBWax38YcqHUWVVbEtviamvXL6Ku/X64CC3sr2Itth7phPMW6bp1trV3XgLrtSX972zW2E7/VZvl2Krcr9stYHtv2OFpgfR3iHOBj1j8oSx/IB9vBXoxlc0w0+7oQgd9JYEfiebJgnV0UaJMJi0DpTF4ofCGAEMp18703t4WE7Ofx4W2widXCiR33274O74sox1Za5/z53q43YqkL5PAVHz6AkH98VYdT3sAFOTL3lGeLe5IrmrdvASZ+m/hple1ixpoW8sEXlZGdsNi/O4ceS+67zg59MY+DQjJV1h/rwfirFUb2ZG/IOVgdP1ieqV9aF/stjxYPv4/cor98l9msCTYbL7nP2xhqRtk/P/6yMQeGfLluMdzHQ7LP47J+sBxiCvZH2y30LOprwWDP3neb9OgMPtTaGEFf5DoUaxdbtY+s3eHkHxJ6WVqThjWg9y/3jV2v9eE4Ti0ZY1ptBVZMpl+H8YK8a/HAKtgrfYfYOGZY7+0pJhSyeGS7fD3EccZOs10vJrZalZWynkfMz9r1smplGB+pjyc+Am/65qezmsfOvu0a3Fs+uhABEXAC+xHPLDJow7CNPm++pe/SAjdZQHihCBtArpvv3UG3P12IvM36ItbboE5cJDm2ks+4QbsN22jMFzbXUnnlf4uNIo6K39FPbBq4tKIea4uhljV7U2a10lZZ88EXnXV/t8cQT6KsBpX1BnTSGOtcl0OPZc6GHK7EwTXatTOpwqmKh9E+5XWGYesHONisX+zyXBp9m6Fx/MA8Xr2dz8/5uEY9vFqcef722M/H5f5mc2DId2P+XNBPPaYaebA/2kZ+9rqdYxTNECPB3yCOusBlP7iGP2PjbC1WWx/slYSp+7C+wtoRcvLAa5n1A/oTXvrrfKxYm8vFc7NG6zzGRWBhFUOcZYwwN7SDzd6eYkIh9z3b5eta92I7zXa9mNhqVVbKzFfJI+Zn7XpZtTKMj9RX5OPc/Ow5rsTefFlcyU9LShciIAK7Ec/DpK594+9j8Q/9lRZKWkBQjW2GDWCoOy5gcQGHRXodbNTNyBec2WYbfXBsxeqkjfsof5CWNwyKZHLZfYW8JzXXykt8r/5HQti4rHmPu/sYzW6VjbWnYpj58rU3L6wykx5b8fGuHNiXb/RbG8i1efIYmT1uw/b4emSWc90cr21D7HbW+r2SW/l5sMkYZXHSzberIU7+mv2SuNbmAPeTextj8xxdTM7HSwsyjOv6brA/2ua23Q/eLfXx2MZYzvOojom2xm33u3swbgebmxDZ1qasE32u2nson+Vk79U6RzwnjfjT62weMB++Tk3Xbnn8DWMk2Is8hro8nmZjkW2tXdcgu+1Jf3vbtZPYGGPMeVbG43EstzjC2sbzhHOAo9Y/k7j2Of4yAAASB0lEQVQTk55jbTzYs3j+LcdzYwK+9SoCv5TATsTzuIC0/hgmN0rqJMcPN0/q8ULBi/VMaITydgKXNh+4tlf3x39ZzgsiX3vl9pfq2Nw4tmJ2tvCV94ZfKOA4LJT8G9ZtMbWKhS0vxlyfr4NZtzH+OgLHPbQlv14WTi42+rjG2E7IspiZ9G38Q6EqQLJYuDqHzLve02le/MOzrZyMZmnP7JlfzqEw6xv0Ft9gx11tPPNM/eJ9DC5VsG35CWNiyAe8esyxfhWJ3C8cC19bwxRXsQUfaS4OY6LUw/yytp4X+s5ts43YN9s8R9shz7oWNN/Io/rOfP3eToQ5tiaea9xbcwdrT6sDRvxBL4/Ncp/XEs+bvtYPebWbah/xYn3E/dAXrWG9yLFcwz62LfFSP4YxVHMklqFfOU6+RpT0G/aljzrPc5xyH/M6kW3F+5ifhWK+eM1wW8gJfQ/2YU5Grlh/7BsnjM3Aw5ytcaA2FY9eREAEiMAuxHNcTCg6v8wLdy/HguYLzdoiUBeZsLhN6ppV2PPFxn9Gjhbp7rZcVRvhp/HagoZFqT/f+HKKeQyLGDZ73lTxHhbOHEO7r7b96/RR8Dahj3KyF7g0e3YxbkT+Lm0w7R52WSQlnryABzd+UzeQw8rzwSv91cSW+5/11fU5lJ8PZFvVRsuxb6hghI1pzGscB/wBIfPDT3CxPR6TLHyG8bPGqAYV7Fj/BzF5ZvxwYu5nfVxz1ZZf+Ek9ZhvnnLMJcRVr0zE65FtyYHbejuak37d+jALlHM/WluyFXCGYzX792bYugBLf+pwy/u4A42joX4qV82qiiGKZMuKYfG6Wsdzj8kk6/jRlSAw3Yw4omQmwVoaLEAt9cMA6QblEe3VtoD+I/Ls6nmrdS9aRYfzUsUhx8JwpP+8Wxy5SwyvX57608jZ+vE+31xCzM/QR1uwa9832nQkHFv4lt9L3ISYkrVcR+KUEdiGe75L9bNH5hERs0f35i1bcID8Bo0x+E4FBlL4jjnucA4MAekfeX9LERC0Jxi/x+QEn2+PpM9cRs70tnj+Q1uVNv2LfubMxcTk81RSB2xGQeH4vy69YxPwruR0s2O9ldHG7z9z0Lg5CFT+BwLbYucShnXrtew4Mp75fsjZcwu58HeufeKp9vs131tgeT7daR8aT1qGPvwvCF4ytexsT39UV8vu7CUg8v7f/P3sRq19z/vxTZ+uAW2167+1MtfssAtti54zXu5kD6ZGGPZxQnkHbHuW6o1NnS2l7PN1wHfH1vT+elB+3Oof308o/c99Bznc2Jj6NtQyLwAYBiecNOCoSAREQAREQAREQAREQASYg8cw0dC0CIiACIiACIiACIiACGwQknjfgqEgEREAEREAEREAEREAEmIDEM9PQtQiIgAiIgAiIgAiIgAhsEJB43oCjIhEQAREQAREQAREQARFgAhLPTEPXIiACIiACIiACIiACIrBBQOJ5A46KREAEREAEREAEREAERIAJXCWe//z5s9zyHweiaxEQAREQAREQAREQARHYO4GrxfPzf//Pyy3+mQjXfyIgAiIgAiIgAiIgAiJwTwSuUrAmeG8hnM2GxPM9DRPFKgIiIAIiIAIiIAIiYAQknjUOREAEREAEREAEREAEROBCAvsRz6fD8vfhcfn7/Lq8peDfjv9K2eG04PrpmGulRroVAREQAREQAREQAREQgRsT2I94Xk7Li4nnh39L1MVvy/F59v6NScicCIiACIiACIiACIiACJwhsCPxvCyng4nkxyWcKr+9Lk90Ij07eUY7P7l+OCynmvRQF7YmdV7Q6AwwFYuACIiACIiACIiACPxeArsSz8tE3EIYQ1BnQYzyIpyL+G6PfsDeoSpjPBry8LgUsYxT7S64f+9QUOYiIAIiIAIiIAIiIALnCOxLPC8QsxC346McUTzXcnpOGuUzccxC28V4FtfnaKlcBERABERABERABETgVxPYmXhe2h8E/rXTYpwU4+R46eVB/Pqz0vXUuV7jpLoIZnuOugrz58PyYs9Qm+Cu9lH3V48EJS8CIiACIiACIiACInCWwO7EMz+68VKfgebnkXGyfE48u/i29CGQDwd/dtraFUF9WIr9/AeKZ5mpggiIgAiIgAiIgAiIwC8lsD/xTI9u5D8AtD4K4hm/0EGPbYz9iEc/ysm0C3GcaNMfIo7t9I4IiIAIiIAIiIAIiIAIRAI7FM/9tHj45Y1BPPdf6Ah/MJh+7q4/61z/MBDPOudf9ohsdCcCIiACIiACIiACIiACgcA+xTNOlJMItsjjyXPJpYtjOl2mNNGm/QoHnW7zIyHURJciIAIiIAIiIAIiIAIiMBDYqXge4tQbIiACIiACIiACIiACIvDtBCSev70LFIAIiIAIiIAIiIAIiMC9EJB4vpeeUpwiIAIiIAIiIAIiIALfTkDi+du7QAGIgAiIgAiIgAiIgAjcC4GrxfOfP3+WW/27F0iKUwREQAREQAREQAREQASMwFXiWchEQAREQAREQAREQARE4DcTkHj+zb2v3EVABERABERABERABK4iIPF8FS5VFgEREAEREAEREAER+M0EJJ5/c+8rdxEQAREQAREQAREQgasISDxfhUuVRUAEREAEREAEREAEfjMBieff3PvKXQREQAREQAREQARE4CoCEs9X4VJlERABERABERABERCB30xA4vk3975yFwEREAEREAEREAERuIqAxPNVuFRZBERABERABERABETgNxPYoXh+W47Pj8vfh8Nyem/PvL0uTw//luPbew1c0u60vLCPD/p8O/5b/h7enfElAX9CHWPwuLxcFHbp18vq3j7U2/CN+Uabsex8Bmn8nG/wQ2vclkPsk48gu6I/PzT3Y/4e//Pr8qlL10ewLN87jz8UuhqLgAiIwI0I7E88nw7L3+fD8vL8uDx9rvr9IMK46S0f2kCX5Xab/gfT+rTm37vpfgbfaPMKseWM0/j5NO57N3xbDrFPPpL7tf35Xl8xf49f4vm9MNVOBERABL6EwO7E8+lQRPP2JlKEWBbXaDsK2VL/74OdaD8uf9vmNG6QZiOcAJsobvXRJ6Ud7PlpahXPL4d/xUfwU9q5bcRgr/Wk2XPF+4MvazvGmflE2/nUPsYLv2bZ7DwdX/0E2fLpuVRWD1sfYmJchX+31ezV0yrw6v221i8WWOF+tP5orFL9SWwzDtt8x7GU2Rb+xrTnO9qsZYdD7//Vb09if7TTePvgiHHA32pg2KXXWa6lyhYn831YjvZNh/my8ZZZ/6f/a/jmZ2QSgwk8Qt6dGVp0WyscULG+xjz7vEnVygdQ8GvzaItF/dCKNoF5itvn94rvOvfLZ31r9285Hrkv83xE5GP+hU05PMBY6POltIust79hW6vrTMM3XXEezNtFlj2u+H5fX+s8tvHAY9v8gqezX+MDTnoVAREQgX0R2Jl4rhuPfWcZNqQRWtlk+OvNtbZxUzBLvHHYdd8E6mbWNl6Iy9mXqOTPjGIzaBtSsQXb7pPsLnUzgXDyfFrbnG+xhbruzsRPtZdZxPvcNvLwuluigQRjjiqLes+RbBXb2BiL355DjMNsc7+AJ/gtEODEKMce867CiBlRW87F27WyEld4bMj6yssjy9iulKFPZvGyz8KOhI+Ph4372LgIRRpPPfcaf8sHAhG2a5xUPrKOeSKX3ncxGPdNgjneZ1uxXwYO0XQZE5RnnjepevoG5wwLZ47x6QOQPjRQ3HVur+Uf16rKt8U8xhBjtvroG/QVPQqVxkXv52ol58DGcxnf87W18Rwri1wW7ks+nUW57/N0Po/bB3ask228jO05BV2LgAiIwB4J7Eo8540hiKlMzxfhvun4pooNi8ts4cf7zQZtWFxu7fyREdi1hR3XrXG9IBv2DvtEjXyKHUyUTRabkOfOgmajrrvbEM/cdGrXYy0bZWaeBTHbGq9jDkN/BSZp02XuzTAxDW1bhXgR6sRYYsUqStb4Eo+S/2F5OXQBY3mVfoo+IttYZv5HthwV5Vo/GLAAsZoDz9Z89NWKZhfnOIXyYiD4Dnyyg1ksLIjG8siFOWTbs/vRHteKfcIl9ZpzDaIw14Wf8pr7JtRmm5MPmzHf0NJ6eRTPYb1CHNYu1oUl66tpfBflV6wEbpvtPjqPeWxMfCMpvYqACIjAjgnsSDynRdmgXbCIY9MIGwhtZr4ptK9l+6MIf3HaQ8LA6po9s+ViycrCRsY9mTYy8olaQYDUN3M8txDPELzla94o9j2Gaf5r4rmffrm9NcHp+fDGPhF7gUns38wBX1HHfom5BK4tp1on+ELN/ur+VnOhvrQxdzi58C1jy8pwOhnzjTZjmXn28ovGz9i2tZ/FfCZXZB37Hiwnvmb2jANir0xgN7zO2lbh3/nhw0dpGblYPIgtWA433qb1ebTHFWOf9JI5izImMfYwF0urwmk2p7rVehUYjHxjvrl1zH+sS/bcD69h/RrrYLS+lV+Zr2hnfHr+W+0+Oo9je4t3rc9iLroTAREQgf0Q2I94dqHcNwNsaPaKBT5j6xtN3ID4FLjXya1x3xfztoFALJwOq76HU6CwgRbbvmFX8eNx+OZ/iRBDbHilDbS+Nc+LN73ih2OANX6d26k1qE/mfRDjGnwFJp2zWd/06xXGX0xx+8YQoo7t8zUnWK/d30yI1nKzbTlaPc/V7Jkfe23tYr7RZizzFOjbgTEkqw/ROLZt7ZtvsnAm101Ok5NRni/dS4/P7HVh1Wv41Uos4IkPdtw+9n33kywX83g2e+UDTG4T+6R+oFsbM9S4MUt9gjHRxhy1aZeBwdiXMd/Wql7E/Me6ZC/4yXa278f86uGEzyXzgXUp2hnbfXQex/bmLfdZjEB3IiACIrA/ArsRz75IT4SCvw+xlPlhM7E/zuE6eN8eVXYBON8YYM4W7/JHc7WetX9+XY4HiBvU5Ne46c0ESM9p3DCyqNjeQGgDrSGMm2yOrQie7XoXiFhsbsy3uYpx9XwRJAvgxOBcv3AfurnE294LdWIsLUSEYiJsMr5aPf/A9EqP6Zi98od1XfhFH7HPYpmHd7F4LmzyB5SBZw924ycCLY40bs9xCuXNiX8DE+ZFL6KrMW88I13yGcvjmJzE26ynMePvj/ZadYzV1s8T2yu5FhvcD+ynXOf+aX6DTW5XrV48Dmbzke3xdfN+xQXnZ83MXv3jxsZsZo7bpT65eh6n9kOfzfzrPREQARHYF4GdiOeNTSFsTBleWYj9lJoX/9Cm1uHyvOD7PZ1o1tO5IMiza2w8+FvC4LNU7uKnxNA33x43hFkUYtlZzqHwQnxRjOQPDKVu9x036KHtcDKZY+fYYr/1fGudwKTYQb4QWEHQcr+EtmYv+sJ9e8wDmzCLfLK3zRdC3L75wAct9BHuxxiizRxf5MzUyrXVJ5HrsW7cJwNDv7VccxzlvnPK5cidfMOX21z5hQnUAffGrebd7rfHbhNwmEdkF2Okj130yfpJ+HafJBaNWXUaxlzilPuH49xqBz48LrltWkeGfk3j3ssbWzOU4mTbm/mVij5n8Ss7aLvZ7qPzOLev44XXZ8ShVxEQARHYKYFdiOdxQ2BaefPlMmzUaTMNm5nVx6aJx0JYEPXyvklPnt+Nbv0OG4+3G3wmG14O/xZvyquV59iq41ZeBZ5tcG1DrrbaM6FJCIW2/CFhReD55tljDQI3cIgb97Z47n3V7W30i8ec8ghxWVlpP/TbjENjsMJ37dc8GmNLPOZbTr5rf+Sys6KpP1LQ4h/yC7CHG4y/4bncwQ5zSjmY1Rlr9zapO0RR3ihzGGMmMW7sZ2N3woF9hLaTecN17brVrzFssui+8ZhY/3A35u68w3iozgO/sd0oiGPQ6EcbB2Pd0R7qjzFHu3Z3tq7zSf11pl3r6yZ4S4yIp38ARX/wPN4Wz2P+Y056RwREQAS+m8AuxPN3Q5B/ERCBGQETRaOwmtXUe3dKwMRzE8F3moPCFgEREIEvJiDx/MXA5U4E7oaAhNXddNV7A7WT6X7a/l4raicCIiACv4uAxPPv6m9lKwIXEMBjQDp1vgDWfVbB4y06db7P/lPUIiAC30pA4vlb8cu5CIiACIiACIiACIjAPRGQeL6n3lKsIiACIiACIiACIiAC30pA4vlb8cu5CIiACIiACIiACIjAPRH4/wGuUuqUC2MWJgAAAABJRU5ErkJggg==;" parent="1" vertex="1">
          <mxGeometry x="40" y="-360" width="510" height="239.75" as="geometry" />
        </mxCell>
        <mxCell id="161Uzi5ln6aIAx_xt0JG-14" value="Nota de Corretagem Criada" style="whiteSpace=wrap;html=1;aspect=fixed;fillColor=#ffe6cc;strokeColor=#d79b00;" parent="1" vertex="1">
          <mxGeometry x="740" y="295" width="80" height="80" as="geometry" />
        </mxCell>
        <mxCell id="161Uzi5ln6aIAx_xt0JG-15" value="Alterar Tipo de Corretagem do Cliente" style="whiteSpace=wrap;html=1;aspect=fixed;fillColor=#dae8fc;strokeColor=#6c8ebf;" parent="1" vertex="1">
          <mxGeometry x="420" y="60" width="80" height="80" as="geometry" />
        </mxCell>
        <mxCell id="161Uzi5ln6aIAx_xt0JG-16" value="Cadastro do Cliente" style="whiteSpace=wrap;html=1;aspect=fixed;fillColor=#f8cecc;strokeColor=#b85450;" parent="1" vertex="1">
          <mxGeometry x="180" y="-50" width="80" height="80" as="geometry" />
        </mxCell>
        <mxCell id="161Uzi5ln6aIAx_xt0JG-22" style="edgeStyle=orthogonalEdgeStyle;rounded=0;orthogonalLoop=1;jettySize=auto;html=1;entryX=0.75;entryY=0;entryDx=0;entryDy=0;" parent="1" source="161Uzi5ln6aIAx_xt0JG-17" target="161Uzi5ln6aIAx_xt0JG-15" edge="1">
          <mxGeometry relative="1" as="geometry">
            <Array as="points">
              <mxPoint x="480" y="-60" />
            </Array>
          </mxGeometry>
        </mxCell>
        <mxCell id="161Uzi5ln6aIAx_xt0JG-17" value="Apoio de Operador Contratado" style="whiteSpace=wrap;html=1;aspect=fixed;fillColor=#ffe6cc;strokeColor=#d79b00;" parent="1" vertex="1">
          <mxGeometry x="250" y="-100" width="80" height="80" as="geometry" />
        </mxCell>
        <mxCell id="161Uzi5ln6aIAx_xt0JG-21" style="edgeStyle=orthogonalEdgeStyle;rounded=0;orthogonalLoop=1;jettySize=auto;html=1;entryX=0.25;entryY=0;entryDx=0;entryDy=0;" parent="1" source="161Uzi5ln6aIAx_xt0JG-18" target="161Uzi5ln6aIAx_xt0JG-15" edge="1">
          <mxGeometry relative="1" as="geometry">
            <Array as="points">
              <mxPoint x="440" y="40" />
            </Array>
          </mxGeometry>
        </mxCell>
        <mxCell id="161Uzi5ln6aIAx_xt0JG-18" value="Apoio de Operador Cancelado" style="whiteSpace=wrap;html=1;aspect=fixed;fillColor=#ffe6cc;strokeColor=#d79b00;" parent="1" vertex="1">
          <mxGeometry x="250" width="80" height="80" as="geometry" />
        </mxCell>
        <mxCell id="161Uzi5ln6aIAx_xt0JG-24" value="Nota de Corretagem Corrigida" style="whiteSpace=wrap;html=1;aspect=fixed;fillColor=#ffe6cc;strokeColor=#d79b00;" parent="1" vertex="1">
          <mxGeometry x="740" y="205" width="80" height="80" as="geometry" />
        </mxCell>
        <mxCell id="161Uzi5ln6aIAx_xt0JG-27" style="edgeStyle=orthogonalEdgeStyle;rounded=0;orthogonalLoop=1;jettySize=auto;html=1;" parent="1" source="s-K3VyDwhbTrTfHGJYKy-16" target="161Uzi5ln6aIAx_xt0JG-26" edge="1">
          <mxGeometry relative="1" as="geometry">
            <mxPoint x="600" y="440" as="sourcePoint" />
          </mxGeometry>
        </mxCell>
        <mxCell id="161Uzi5ln6aIAx_xt0JG-26" value="Corrigir Nota de Corretagem" style="whiteSpace=wrap;html=1;aspect=fixed;fillColor=#dae8fc;strokeColor=#6c8ebf;" parent="1" vertex="1">
          <mxGeometry x="560" y="285" width="80" height="80" as="geometry" />
        </mxCell>
        <mxCell id="161Uzi5ln6aIAx_xt0JG-29" value="Nota de Corretagem Fechada" style="whiteSpace=wrap;html=1;aspect=fixed;fillColor=#ffe6cc;strokeColor=#d79b00;" parent="1" vertex="1">
          <mxGeometry x="740" y="25" width="80" height="80" as="geometry" />
        </mxCell>
        <mxCell id="161Uzi5ln6aIAx_xt0JG-32" style="edgeStyle=orthogonalEdgeStyle;rounded=0;orthogonalLoop=1;jettySize=auto;html=1;" parent="1" source="161Uzi5ln6aIAx_xt0JG-30" target="161Uzi5ln6aIAx_xt0JG-33" edge="1">
          <mxGeometry relative="1" as="geometry">
            <mxPoint x="610" y="-200" as="targetPoint" />
          </mxGeometry>
        </mxCell>
        <mxCell id="161Uzi5ln6aIAx_xt0JG-30" value="Mercado Fechado" style="whiteSpace=wrap;html=1;aspect=fixed;fillColor=#ffe6cc;strokeColor=#d79b00;" parent="1" vertex="1">
          <mxGeometry x="560" y="-190" width="80" height="80" as="geometry" />
        </mxCell>
        <mxCell id="161Uzi5ln6aIAx_xt0JG-33" value="Fechar Nota de Corretagem" style="whiteSpace=wrap;html=1;aspect=fixed;fillColor=#dae8fc;strokeColor=#6c8ebf;" parent="1" vertex="1">
          <mxGeometry x="560" y="40" width="80" height="80" as="geometry" />
        </mxCell>
        <mxCell id="161Uzi5ln6aIAx_xt0JG-36" value="Item Incluído na Nota de Corretagem" style="whiteSpace=wrap;html=1;aspect=fixed;fillColor=#ffe6cc;strokeColor=#d79b00;" parent="1" vertex="1">
          <mxGeometry x="740" y="115" width="80" height="80" as="geometry" />
        </mxCell>
        <mxCell id="s-K3VyDwhbTrTfHGJYKy-3" value="Sempre que se cadastra um operador para um cliente, deve ser usada a Tabela Bovespa para cálculo de corretagem" style="rounded=0;whiteSpace=wrap;html=1;fillColor=#e1d5e7;strokeColor=#9673a6;fontSize=10;" vertex="1" parent="1">
          <mxGeometry x="305" y="105" width="120" height="80" as="geometry" />
        </mxCell>
        <mxCell id="s-K3VyDwhbTrTfHGJYKy-5" style="edgeStyle=orthogonalEdgeStyle;rounded=0;orthogonalLoop=1;jettySize=auto;html=1;entryX=1;entryY=0.5;entryDx=0;entryDy=0;fontSize=12;" edge="1" parent="1" source="s-K3VyDwhbTrTfHGJYKy-4" target="s-K3VyDwhbTrTfHGJYKy-16">
          <mxGeometry relative="1" as="geometry">
            <mxPoint x="600" y="470" as="targetPoint" />
          </mxGeometry>
        </mxCell>
        <mxCell id="s-K3VyDwhbTrTfHGJYKy-4" value="Nota de Corretagem" style="rounded=0;whiteSpace=wrap;html=1;fontSize=12;fillColor=#d5e8d4;strokeColor=#82b366;" vertex="1" parent="1">
          <mxGeometry x="720" y="440" width="120" height="60" as="geometry" />
        </mxCell>
        <mxCell id="s-K3VyDwhbTrTfHGJYKy-6" value="&lt;span&gt;Informe de Rendimentos&lt;/span&gt;" style="rounded=0;whiteSpace=wrap;html=1;fontSize=12;fillColor=#fff2cc;strokeColor=#d6b656;" vertex="1" parent="1">
          <mxGeometry x="1020" y="70" width="120" height="260" as="geometry" />
        </mxCell>
        <mxCell id="161Uzi5ln6aIAx_xt0JG-40" value="Imposto de Renda Calculado" style="whiteSpace=wrap;html=1;aspect=fixed;fillColor=#ffe6cc;strokeColor=#d79b00;" parent="1" vertex="1">
          <mxGeometry x="1120" y="160" width="80" height="80" as="geometry" />
        </mxCell>
        <mxCell id="s-K3VyDwhbTrTfHGJYKy-7" value="Calcular Imposto de Renda" style="whiteSpace=wrap;html=1;aspect=fixed;fontSize=12;fillColor=#dae8fc;strokeColor=#6c8ebf;" vertex="1" parent="1">
          <mxGeometry x="950" y="160" width="80" height="80" as="geometry" />
        </mxCell>
        <mxCell id="s-K3VyDwhbTrTfHGJYKy-16" value="Backoffice" style="whiteSpace=wrap;html=1;aspect=fixed;fontSize=12;fillColor=#fff2cc;strokeColor=#d6b656;" vertex="1" parent="1">
          <mxGeometry x="560" y="430" width="80" height="80" as="geometry" />
        </mxCell>
        <mxCell id="s-K3VyDwhbTrTfHGJYKy-18" style="edgeStyle=orthogonalEdgeStyle;rounded=0;orthogonalLoop=1;jettySize=auto;html=1;fontSize=12;" edge="1" parent="1" source="s-K3VyDwhbTrTfHGJYKy-17" target="s-K3VyDwhbTrTfHGJYKy-7">
          <mxGeometry relative="1" as="geometry" />
        </mxCell>
        <mxCell id="s-K3VyDwhbTrTfHGJYKy-19" style="edgeStyle=orthogonalEdgeStyle;rounded=0;orthogonalLoop=1;jettySize=auto;html=1;fontSize=12;" edge="1" parent="1" source="s-K3VyDwhbTrTfHGJYKy-17" target="s-K3VyDwhbTrTfHGJYKy-4">
          <mxGeometry relative="1" as="geometry" />
        </mxCell>
        <mxCell id="s-K3VyDwhbTrTfHGJYKy-17" value="" style="rounded=0;whiteSpace=wrap;html=1;fontSize=12;fillColor=none;dashed=1;" vertex="1" parent="1">
          <mxGeometry x="720" y="10" width="120" height="380" as="geometry" />
        </mxCell>
        <mxCell id="s-K3VyDwhbTrTfHGJYKy-20" value="Ordem" style="rounded=0;whiteSpace=wrap;html=1;fontSize=12;fillColor=#d5e8d4;strokeColor=#82b366;" vertex="1" parent="1">
          <mxGeometry x="280" y="360" width="80" height="60" as="geometry" />
        </mxCell>
      </root>
    </mxGraphModel>
  </diagram>
</mxfile>
